<svg width="118" height="32" viewBox="0 0 118 32" fill="none" xmlns="http://www.w3.org/2000/svg">
<path fill-rule="evenodd" clip-rule="evenodd" d="M36.7532 14.2222H29.7865C28.7707 14.2222 27.9365 15.0694 27.9365 16.101C27.9365 17.1337 28.7707 17.9809 29.7865 17.9809H36.7532C37.769 17.9809 38.6032 17.1337 38.6032 16.101C38.6032 15.0694 37.787 14.2222 36.7532 14.2222" fill="#F5F5F5"/>
<path fill-rule="evenodd" clip-rule="evenodd" d="M54.193 16.0779L60.3428 8.39894C60.9773 7.63604 60.8506 6.41979 60.0884 5.76573C59.7621 5.5111 59.3271 5.38428 58.946 5.38428C58.3654 5.38428 57.8575 5.63891 57.5303 6.09226L51.0004 14.2266H46.2664V7.25459C46.2664 6.23805 45.4313 5.40225 44.4157 5.40225C43.4 5.40225 42.5649 6.23805 42.5649 7.25459V24.8653C42.5649 25.8818 43.4 26.7176 44.4157 26.7176C45.4313 26.7176 46.2664 25.8818 46.2664 24.8653V17.9482H50.9276L57.4585 26.0096C57.7847 26.463 58.3474 26.7176 58.8732 26.7176C59.3271 26.7176 59.7072 26.5898 60.0155 26.3362C60.3967 26.0096 60.6511 25.5733 60.7239 25.1199C60.7957 24.6116 60.6511 24.1573 60.3428 23.7758L54.193 16.0779Z" fill="#F5F5F5"/>
<path fill-rule="evenodd" clip-rule="evenodd" d="M67.1288 13.3471C67.1288 10.5231 69.1831 9.04702 71.2385 9.04702H75.1481C77.2034 9.04702 79.2578 10.5231 79.2578 13.3471V18.8127C79.2578 21.6366 77.2034 23.1127 75.1481 23.1127H71.2385C69.1831 23.1127 67.1288 21.6366 67.1288 18.8127V13.3471ZM75.1481 5.38428H71.2385C68.9291 5.38428 66.9468 6.27716 65.4735 7.95371C64.1823 9.42983 63.4922 11.416 63.4922 13.4203V18.8858C63.4922 20.872 64.2013 22.8762 65.4735 24.3514C66.9468 26.0279 68.9291 26.9208 71.2385 26.9208H75.1481C77.4575 26.9208 79.4398 26.0279 80.913 24.3514C82.2042 22.8762 82.8954 20.89 82.8954 18.8858V13.4203C82.8954 11.4341 82.1852 9.42983 80.913 7.95371C79.4398 6.27716 77.4035 5.38428 75.1481 5.38428V5.38428Z" fill="#F5F5F5"/>
<path fill-rule="evenodd" clip-rule="evenodd" d="M115.131 7.9503C113.657 6.27598 111.674 5.38428 109.363 5.38428H107.817C105.506 5.38428 103.522 6.27598 102.048 7.9503C101.975 8.02336 101.921 8.0774 101.848 8.15046C101.776 8.0774 101.721 8.02336 101.648 7.9503C100.174 6.27598 98.191 5.38428 95.8791 5.38428H94.406C92.0951 5.38428 90.1116 6.27598 88.6374 7.9503C87.3454 9.42447 86.6538 11.407 86.6538 13.4086V24.9637C86.6538 25.9825 87.4915 26.8192 88.5103 26.8192C89.5291 26.8192 90.3658 25.9825 90.3658 24.9637V13.4086C90.3658 10.5884 92.4224 9.11522 94.479 9.11522H96.0253C98.0819 9.11522 100.138 10.5884 100.138 13.4086V24.9637C100.138 25.9825 100.974 26.8192 101.994 26.8192C103.013 26.8192 103.849 25.9825 103.849 24.9637V13.4086C103.849 10.5884 105.906 9.11522 107.962 9.11522H109.509C111.565 9.11522 113.621 10.5884 113.621 13.4086V24.9637C113.621 25.9825 114.458 26.8192 115.477 26.8192C116.497 26.8192 117.333 25.9825 117.333 24.9637V13.4086C117.187 11.353 116.423 9.36942 115.131 7.9503" fill="#F5F5F5"/>
<path fill-rule="evenodd" clip-rule="evenodd" d="M14.0043 17.9773L0.816389 4.78933C-0.27213 3.70081 -0.27213 1.97774 0.816389 0.889223L0.888225 0.816389C1.97674 -0.27213 3.70081 -0.27213 4.78833 0.816389L17.9773 14.0043C19.0658 15.0928 19.0658 16.8159 17.9773 17.9044L17.9044 17.9773C16.8159 19.0658 15.0928 19.0658 14.0043 17.9773" fill="#0082FA"/>
<path fill-rule="evenodd" clip-rule="evenodd" d="M27.2109 31.1838L14.0229 17.9959C12.9344 16.9074 12.9344 15.1843 14.0229 14.0958L14.0958 14.0229C15.1843 12.9344 16.9074 12.9344 17.9959 14.0229L31.1838 27.2119C32.2723 28.2994 32.2723 30.0225 31.1838 31.111L31.111 31.1838C30.0225 32.2723 28.2994 32.2723 27.2109 31.1838" fill="#8250FA"/>
<path fill-rule="evenodd" clip-rule="evenodd" d="M14.1032 18.0782L5.59123 9.56623C4.50214 8.47714 4.50214 6.75318 5.59123 5.6641L5.6631 5.59123C6.75218 4.50214 8.47714 4.50214 9.56523 5.59123L18.0782 14.1032C19.1673 15.1923 19.1673 16.9163 18.0782 18.0054L18.0054 18.0782C16.9163 19.1673 15.1923 19.1673 14.1032 18.0782" fill="#0FD2FF"/>
<path fill-rule="evenodd" clip-rule="evenodd" d="M22.0748 26.0624L14.0278 18.0209C12.9328 16.9267 12.9328 15.1946 14.0278 14.1004L14.101 14.0272C15.196 12.933 16.9292 12.933 18.0242 14.0272L25.998 21.9955C27.093 23.0897 27.093 24.8228 25.998 25.916L25.9248 25.9892C24.8489 27.0834 23.0965 27.0834 22.0748 26.0624" fill="#C382FA"/>
<path fill-rule="evenodd" clip-rule="evenodd" d="M27.2194 0.919535L0.919528 27.2016C-0.171093 28.2922 -0.171093 30.0186 0.919528 31.1093L0.992503 31.1813C2.08312 32.2729 3.80952 32.2729 4.90014 31.1813L31.182 4.90018C32.2726 3.80955 32.2726 2.08314 31.182 0.99251L31.109 0.919535C30.0364 -0.171095 28.31 -0.171095 27.2194 0.919535" fill="#BE0064"/>
<path fill-rule="evenodd" clip-rule="evenodd" d="M21.5149 6.55524L4.47481 23.6374C3.3847 24.7301 3.3847 26.4598 4.47481 27.5526L4.54675 27.6257C5.63686 28.7174 7.36245 28.7174 8.45255 27.6257L25.4936 10.5436C26.5837 9.45084 26.5837 7.72109 25.4936 6.62836L25.4207 6.55524C24.3306 5.53562 22.55 5.53562 21.5149 6.55524" fill="#FA0064"/>
<path fill-rule="evenodd" clip-rule="evenodd" d="M20.0436 16.0392L23.5626 19.5581C24.6537 20.6494 24.6537 22.3768 23.5626 23.4681L23.4896 23.5411C22.3985 24.6323 20.6713 24.6323 19.5802 23.5411L16.0615 20.0219L10.9975 25.0866C9.9064 26.1778 8.17923 26.1778 7.08812 25.0866L7.01511 25.0145C5.924 23.9233 5.924 22.1959 7.01511 21.1036L12.0793 16.0391L7.85199 11.8112C6.76088 10.7199 6.76088 8.99249 7.85199 7.90123L7.925 7.82821C9.01511 6.73695 10.7433 6.73695 11.8334 7.82821L16.0614 12.0568L18.6893 9.4288C19.7804 8.33753 21.5076 8.33753 22.5987 9.4288L22.6717 9.50181C23.7628 10.5931 23.7628 12.3205 22.6717 13.4108L20.0436 16.0392V16.0392Z" fill="#F5F5F5"/>
</svg>
