<svg width="80" height="80" viewBox="0 0 80 80" fill="none" xmlns="http://www.w3.org/2000/svg">
<g clip-path="url(#clip0_4469_92010)">
<path d="M23.7838 5.06758V4.32434H22.3649C22.1594 4.32434 21.9841 4.39684 21.8391 4.54183C21.6942 4.68683 21.6216 4.86207 21.6216 5.06758V5.74326C21.6216 5.94877 21.6941 6.12404 21.8391 6.26901C21.9841 6.41398 22.1594 6.4865 22.3649 6.4865H23.7838V5.06758Z" fill="#1A1A1A"/>
<path d="M25.946 5.06758C25.946 4.86207 25.8735 4.68681 25.7285 4.54183C25.5835 4.39686 25.4082 4.32434 25.2027 4.32434H23.7838V6.4865H25.946V5.06758Z" fill="#1A1A1A"/>
<path d="M30.2703 5.06758V4.32434H28.8514C28.6459 4.32434 28.4706 4.39684 28.3256 4.54183C28.1807 4.68683 28.1082 4.86207 28.1082 5.06758V5.74326C28.1082 5.94877 28.1807 6.12404 28.3256 6.26901C28.4706 6.41398 28.6459 6.4865 28.8514 6.4865H30.2703V5.06758Z" fill="#1A1A1A"/>
<path d="M32.4324 4.32434H30.2703V6.4865H32.4324V4.32434Z" fill="#1A1A1A"/>
<path d="M34.5946 5.06758C34.5946 4.86207 34.5221 4.68681 34.3771 4.54183C34.2321 4.39686 34.0569 4.32434 33.8514 4.32434H32.4324V6.4865H34.5946V5.06758Z" fill="#1A1A1A"/>
<path d="M38.9189 5.74326C38.9189 5.94882 38.8464 6.12404 38.7014 6.26901C38.5565 6.41396 38.3813 6.4865 38.1757 6.4865H37.5C37.2945 6.4865 37.1193 6.41396 36.9743 6.26901C36.8293 6.12404 36.7568 5.94882 36.7568 5.74326V5.06758C36.7568 4.86209 36.8293 4.68683 36.9743 4.54185C37.1193 4.39686 37.2945 4.32434 37.5 4.32434H38.1757C38.3813 4.32434 38.5565 4.39684 38.7014 4.54183C38.8464 4.68685 38.9189 4.86209 38.9189 5.06758V5.74326Z" fill="#1A1A1A"/>
<path d="M45.4054 5.06758V4.32434H43.9865C43.781 4.32434 43.6058 4.39684 43.4608 4.54183C43.3158 4.68683 43.2433 4.86207 43.2433 5.06758V6.4865H45.4054V5.06758Z" fill="#1A1A1A"/>
<path d="M47.5676 4.32434H45.4054V6.4865H47.5676V4.32434Z" fill="#1A1A1A"/>
<path d="M48.9865 4.32434H47.5676V6.4865H48.9865C49.192 6.4865 49.3673 6.41398 49.5122 6.26901C49.6572 6.12404 49.7297 5.94877 49.7297 5.74326V5.06758C49.7297 4.86207 49.6572 4.68681 49.5122 4.54183C49.3673 4.39686 49.192 4.32434 48.9865 4.32434Z" fill="#1A1A1A"/>
<path d="M54.0541 5.74326C54.0541 5.94882 53.9815 6.12404 53.8366 6.26901C53.6916 6.41396 53.5164 6.4865 53.3108 6.4865H52.6351C52.4297 6.4865 52.2544 6.41396 52.1094 6.26901C51.9644 6.12404 51.8919 5.94882 51.8919 5.74326V5.06758C51.8919 4.86209 51.9644 4.68683 52.1094 4.54185C52.2544 4.39686 52.4297 4.32434 52.6351 4.32434H53.3108C53.5164 4.32434 53.6916 4.39684 53.8366 4.54183C53.9815 4.68685 54.0541 4.86209 54.0541 5.06758V5.74326Z" fill="#1A1A1A"/>
<path d="M58.3784 5.06758C58.3784 4.86207 58.3059 4.68681 58.1609 4.54183C58.0159 4.39686 57.8407 4.32434 57.6352 4.32434H56.9595C56.754 4.32434 56.5787 4.39684 56.4337 4.54183C56.2888 4.68683 56.2162 4.86207 56.2162 5.06758V5.74326C56.2162 5.75452 56.2177 5.77143 56.2205 5.79394H56.2162V6.4865H58.3784V5.79394H58.3742C58.377 5.77143 58.3784 5.75455 58.3784 5.74326V5.06758Z" fill="#1A1A1A"/>
<path d="M25.946 6.48645H23.7838V8.64861H25.946V6.48645Z" fill="#1A1A1A"/>
<path d="M34.5946 6.48645H32.4324V8.64861H34.5946V6.48645Z" fill="#1A1A1A"/>
<path d="M43.2433 7.22969V6.48645H41.8244C41.6188 6.48645 41.4436 6.55895 41.2986 6.70394C41.1536 6.84894 41.0811 7.02418 41.0811 7.22969V7.90537C41.0811 8.11088 41.1536 8.28615 41.2986 8.43112C41.4436 8.57609 41.6188 8.64861 41.8244 8.64861H43.2433V7.22969Z" fill="#1A1A1A"/>
<path d="M45.4054 6.48645H43.2433V8.64861H45.4054V6.48645Z" fill="#1A1A1A"/>
<path d="M51.8919 7.22969C51.8919 7.02418 51.8194 6.84892 51.6744 6.70394C51.5294 6.55897 51.3542 6.48645 51.1487 6.48645H50.473C50.2675 6.48645 50.0922 6.55895 49.9472 6.70394C49.8023 6.84894 49.7297 7.02418 49.7297 7.22969V7.90537C49.7297 7.91663 49.7311 7.93354 49.734 7.95605H49.7297V8.64861H51.8919V7.95605H51.8877C51.8905 7.93354 51.8919 7.91666 51.8919 7.90537V7.22969Z" fill="#1A1A1A"/>
<path d="M58.3784 6.48645H56.2162V8.64861H58.3784V6.48645Z" fill="#1A1A1A"/>
<path d="M23.7838 9.39192V8.64868H22.3649C22.1594 8.64868 21.9841 8.72118 21.8391 8.86617C21.6942 9.01117 21.6216 9.18641 21.6216 9.39192V10.0676C21.6216 10.2731 21.6941 10.4484 21.8391 10.5934C21.9841 10.7383 22.1594 10.8108 22.3649 10.8108H23.7838V9.39192Z" fill="#1A1A1A"/>
<path d="M25.946 8.64868H23.7838V10.8108H25.946V8.64868Z" fill="#1A1A1A"/>
<path d="M28.1081 9.39192C28.1081 9.18641 28.0356 9.01115 27.8907 8.86617C27.7457 8.7212 27.5704 8.64868 27.3649 8.64868H25.946V10.8108H28.1081V9.39192Z" fill="#1A1A1A"/>
<path d="M34.5946 8.64868H32.4324V10.8108H34.5946V8.64868Z" fill="#1A1A1A"/>
<path d="M38.9189 10.0676C38.9189 10.2732 38.8464 10.4484 38.7014 10.5934C38.5565 10.7383 38.3813 10.8108 38.1757 10.8108H37.5C37.2945 10.8108 37.1193 10.7383 36.9743 10.5934C36.8293 10.4484 36.7568 10.2732 36.7568 10.0676V9.39192C36.7568 9.18643 36.8293 9.01117 36.9743 8.8662C37.1193 8.7212 37.2945 8.64868 37.5 8.64868H38.1757C38.3813 8.64868 38.5565 8.72118 38.7014 8.86617C38.8464 9.01119 38.9189 9.18643 38.9189 9.39192V10.0676Z" fill="#1A1A1A"/>
<path d="M45.4054 8.64868H43.2433V10.8108H45.4054V8.64868Z" fill="#1A1A1A"/>
<path d="M49.7297 9.39192V8.64868H48.3108C48.1053 8.64868 47.93 8.72118 47.7851 8.86617C47.6401 9.01117 47.5676 9.18641 47.5676 9.39192V10.0676C47.5676 10.2731 47.6401 10.4484 47.7851 10.5934C47.9301 10.7383 48.1053 10.8108 48.3108 10.8108H49.7297V9.39192Z" fill="#1A1A1A"/>
<path d="M51.8919 8.64868H49.7297V10.8108H51.8919V8.64868Z" fill="#1A1A1A"/>
<path d="M54.0541 8.64868H51.8919V10.8108H54.0541V8.64868Z" fill="#1A1A1A"/>
<path d="M56.2162 8.64868H54.0541V10.8108H56.2162V8.64868Z" fill="#1A1A1A"/>
<path d="M58.3784 8.64868H56.2162V10.8108H57.6352C57.8407 10.8108 58.0159 10.7383 58.1609 10.5934C58.3059 10.4484 58.3784 10.2731 58.3784 10.0676V8.64868Z" fill="#1A1A1A"/>
<path d="M25.946 10.8108H23.7838V12.973H25.946V10.8108Z" fill="#1A1A1A"/>
<path d="M28.1081 10.8108H25.946V12.973H28.1081V10.8108Z" fill="#1A1A1A"/>
<path d="M32.4324 11.554V10.8108H31.0135C30.808 10.8108 30.6327 10.8833 30.4878 11.0283C30.3428 11.1733 30.2703 11.3485 30.2703 11.554V12.2297C30.2703 12.4352 30.3428 12.6105 30.4878 12.7555C30.6328 12.9004 30.808 12.973 31.0135 12.973H32.4324V11.554Z" fill="#1A1A1A"/>
<path d="M34.5946 10.8108H32.4324V12.973H34.5946V10.8108Z" fill="#1A1A1A"/>
<path d="M36.0135 10.8108H34.5946V12.973H36.0135C36.219 12.973 36.3943 12.9004 36.5393 12.7555C36.6842 12.6105 36.7568 12.4352 36.7568 12.2297V11.554C36.7568 11.3485 36.6842 11.1733 36.5393 11.0283C36.3943 10.8833 36.219 10.8108 36.0135 10.8108Z" fill="#1A1A1A"/>
<path d="M41.0811 12.2297C41.0811 12.4353 41.0086 12.6105 40.8636 12.7555C40.7186 12.9004 40.5434 12.973 40.3379 12.973H39.6622C39.4567 12.973 39.2814 12.9004 39.1365 12.7555C38.9915 12.6105 38.9189 12.4353 38.9189 12.2297V11.554C38.9189 11.3485 38.9914 11.1733 39.1364 11.0283C39.2815 10.8833 39.4567 10.8108 39.6622 10.8108H40.3379C40.5434 10.8108 40.7187 10.8833 40.8636 11.0283C41.0086 11.1733 41.0811 11.3485 41.0811 11.554V12.2297Z" fill="#1A1A1A"/>
<path d="M45.4054 10.8108H43.2433V12.973H45.4054V10.8108Z" fill="#1A1A1A"/>
<path d="M51.8877 11.5034H51.8919V10.8108H49.7297V11.5034H49.734C49.7311 11.5259 49.7297 11.5428 49.7297 11.554V12.2297C49.7297 12.4352 49.8022 12.6105 49.9472 12.7555C50.0922 12.9004 50.2675 12.973 50.473 12.973H51.1487C51.3542 12.973 51.5294 12.9004 51.6744 12.7555C51.8194 12.6105 51.8919 12.4352 51.8919 12.2297V11.554C51.8919 11.5428 51.8905 11.5259 51.8877 11.5034Z" fill="#1A1A1A"/>
<path d="M56.212 11.5034H56.2162V10.8108H54.0541V11.5034H54.0583C54.0555 11.5259 54.0541 11.5428 54.0541 11.554V12.2297C54.0541 12.4352 54.1266 12.6105 54.2716 12.7555C54.4166 12.9004 54.5918 12.973 54.7973 12.973H55.473C55.6785 12.973 55.8538 12.9004 55.9987 12.7555C56.1437 12.6105 56.2162 12.4352 56.2162 12.2297V11.554C56.2162 11.5428 56.2149 11.5259 56.212 11.5034Z" fill="#1A1A1A"/>
<path d="M23.7838 13.7163V12.973H22.3649C22.1594 12.973 21.9841 13.0455 21.8391 13.1905C21.6942 13.3355 21.6216 13.5108 21.6216 13.7163V14.3919C21.6216 14.5975 21.6941 14.7727 21.8391 14.9177C21.9841 15.0627 22.1594 15.1352 22.3649 15.1352H23.7838V13.7163Z" fill="#1A1A1A"/>
<path d="M25.946 12.973H23.7838V15.1352H25.946V12.973Z" fill="#1A1A1A"/>
<path d="M28.1081 12.973H25.946V15.1352H28.1081V12.973Z" fill="#1A1A1A"/>
<path d="M29.5271 12.973H28.1082V15.1352H29.5271C29.7326 15.1352 29.9079 15.0627 30.0528 14.9177C30.1978 14.7727 30.2703 14.5975 30.2703 14.3919V13.7163C30.2703 13.5108 30.1978 13.3355 30.0528 13.1905C29.9079 13.0455 29.7326 12.973 29.5271 12.973Z" fill="#1A1A1A"/>
<path d="M38.9189 13.7163C38.9189 13.5108 38.8464 13.3355 38.7014 13.1905C38.5565 13.0455 38.3812 12.973 38.1757 12.973H37.5C37.2945 12.973 37.1192 13.0455 36.9743 13.1905C36.8293 13.3355 36.7568 13.5108 36.7568 13.7163V14.3919C36.7568 14.4032 36.7582 14.4201 36.761 14.4426H36.7568V15.1352H38.9189V14.4426H38.9147C38.9176 14.4201 38.9189 14.4032 38.9189 14.3919V13.7163Z" fill="#1A1A1A"/>
<path d="M43.2433 13.7163V12.973H41.8244C41.6188 12.973 41.4436 13.0455 41.2986 13.1905C41.1536 13.3355 41.0811 13.5108 41.0811 13.7163V15.1352H43.2433V13.7163Z" fill="#1A1A1A"/>
<path d="M45.4054 12.973H43.2433V15.1352H45.4054V12.973Z" fill="#1A1A1A"/>
<path d="M47.5676 13.7163C47.5676 13.5108 47.495 13.3355 47.3501 13.1905C47.2051 13.0455 47.0298 12.973 46.8243 12.973H45.4054V15.1352H47.5676V13.7163Z" fill="#1A1A1A"/>
<path d="M58.3784 14.3919C58.3784 14.5975 58.3059 14.7727 58.1609 14.9177C58.0159 15.0626 57.8407 15.1352 57.6352 15.1352H56.9595C56.754 15.1352 56.5787 15.0626 56.4338 14.9177C56.2888 14.7727 56.2162 14.5975 56.2162 14.3919V13.7163C56.2162 13.5108 56.2887 13.3355 56.4337 13.1905C56.5788 13.0455 56.754 12.973 56.9595 12.973H57.6352C57.8407 12.973 58.016 13.0455 58.1609 13.1905C58.3059 13.3355 58.3784 13.5108 58.3784 13.7163V14.3919Z" fill="#1A1A1A"/>
<path d="M28.1081 15.1351H25.946V17.2973H28.1081V15.1351Z" fill="#1A1A1A"/>
<path d="M32.4324 15.8784C32.4324 15.6729 32.3599 15.4976 32.2149 15.3526C32.07 15.2077 31.8947 15.1351 31.6892 15.1351H31.0135C30.808 15.1351 30.6327 15.2076 30.4878 15.3526C30.3428 15.4976 30.2703 15.6729 30.2703 15.8784V16.5541C30.2703 16.5653 30.2717 16.5822 30.2745 16.6047H30.2703V17.2973H32.4324V16.6047H32.4282C32.4311 16.5822 32.4324 16.5653 32.4324 16.5541V15.8784Z" fill="#1A1A1A"/>
<path d="M38.9147 15.8277H38.9189V15.1351H36.7568V15.8277H36.761C36.7582 15.8502 36.7568 15.8671 36.7568 15.8784V16.5541C36.7568 16.7596 36.8293 16.9348 36.9743 17.0798C37.1193 17.2248 37.2945 17.2973 37.5 17.2973H38.1757C38.3812 17.2973 38.5565 17.2248 38.7014 17.0798C38.8464 16.9348 38.9189 16.7596 38.9189 16.5541V15.8784C38.9189 15.8671 38.9176 15.8502 38.9147 15.8277Z" fill="#1A1A1A"/>
<path d="M43.2391 15.8277H43.2433V15.1351H41.0811V15.8277H41.0853C41.0825 15.8502 41.0811 15.8671 41.0811 15.8784V16.5541C41.0811 16.7596 41.1536 16.9348 41.2986 17.0798C41.4436 17.2248 41.6188 17.2973 41.8244 17.2973H42.5C42.7055 17.2973 42.8808 17.2248 43.0258 17.0798C43.1708 16.9348 43.2433 16.7596 43.2433 16.5541V15.8784C43.2433 15.8671 43.2419 15.8502 43.2391 15.8277Z" fill="#1A1A1A"/>
<path d="M47.5676 15.1351H45.4054V16.5541C45.4054 16.7596 45.4779 16.9348 45.6229 17.0798C45.7679 17.2248 45.9431 17.2973 46.1486 17.2973H47.5676V15.1351Z" fill="#1A1A1A"/>
<path d="M49.7297 15.8784C49.7297 15.6729 49.6572 15.4976 49.5122 15.3526C49.3673 15.2077 49.192 15.1351 48.9865 15.1351H47.5676V17.2973H49.7297V15.8784Z" fill="#1A1A1A"/>
<path d="M54.0541 15.8784C54.0541 15.6729 53.9815 15.4976 53.8366 15.3526C53.6916 15.2077 53.5163 15.1351 53.3108 15.1351H52.6351C52.4296 15.1351 52.2544 15.2076 52.1094 15.3526C51.9644 15.4976 51.8919 15.6729 51.8919 15.8784V16.5541C51.8919 16.5653 51.8933 16.5822 51.8961 16.6047H51.8919V17.2973H54.0541V16.6047H54.0499C54.0527 16.5822 54.0541 16.5653 54.0541 16.5541V15.8784Z" fill="#1A1A1A"/>
<path d="M23.7838 18.0406C23.7838 17.8351 23.7113 17.6598 23.5663 17.5149C23.4213 17.3699 23.2461 17.2974 23.0406 17.2974H22.3649C22.1594 17.2974 21.9841 17.3699 21.8391 17.5149C21.6942 17.6598 21.6216 17.8351 21.6216 18.0406V18.7163C21.6216 18.7275 21.623 18.7445 21.6259 18.767H21.6216V19.4595H23.7838V18.767H23.7796C23.7824 18.7445 23.7838 18.7276 23.7838 18.7163V18.0406Z" fill="#1A1A1A"/>
<path d="M28.1039 17.9899H28.1081V17.2974H25.946V17.9899H25.9502C25.9474 18.0125 25.946 18.0293 25.946 18.0406V18.7163C25.946 18.9218 26.0185 19.0971 26.1635 19.242C26.3085 19.387 26.4837 19.4595 26.6892 19.4595H27.3649C27.5704 19.4595 27.7457 19.387 27.8907 19.242C28.0356 19.0971 28.1081 18.9218 28.1081 18.7163V18.0406C28.1081 18.0293 28.1068 18.0125 28.1039 17.9899Z" fill="#1A1A1A"/>
<path d="M32.4282 17.9899H32.4324V17.2974H30.2703V17.9899H30.2745C30.2717 18.0125 30.2703 18.0293 30.2703 18.0406V18.7163C30.2703 18.9218 30.3428 19.0971 30.4878 19.242C30.6328 19.387 30.808 19.4595 31.0135 19.4595H31.6892C31.8947 19.4595 32.07 19.387 32.2149 19.242C32.3599 19.0971 32.4324 18.9218 32.4324 18.7163V18.0406C32.4324 18.0293 32.4311 18.0125 32.4282 17.9899Z" fill="#1A1A1A"/>
<path d="M36.7568 18.7163C36.7568 18.9218 36.6842 19.0971 36.5393 19.242C36.3943 19.387 36.2191 19.4595 36.0135 19.4595H35.3378C35.1324 19.4595 34.9571 19.387 34.8121 19.242C34.6671 19.0971 34.5946 18.9218 34.5946 18.7163V18.0406C34.5946 17.8351 34.6671 17.6598 34.8121 17.5149C34.9571 17.3699 35.1324 17.2974 35.3378 17.2974H36.0135C36.2191 17.2974 36.3943 17.3699 36.5393 17.5149C36.6842 17.6599 36.7568 17.8351 36.7568 18.0406V18.7163Z" fill="#1A1A1A"/>
<path d="M41.0811 18.7163C41.0811 18.9218 41.0086 19.0971 40.8636 19.242C40.7186 19.387 40.5434 19.4595 40.3379 19.4595H39.6622C39.4567 19.4595 39.2814 19.387 39.1365 19.242C38.9915 19.0971 38.9189 18.9218 38.9189 18.7163V18.0406C38.9189 17.8351 38.9914 17.6598 39.1364 17.5149C39.2815 17.3699 39.4567 17.2974 39.6622 17.2974H40.3379C40.5434 17.2974 40.7187 17.3699 40.8636 17.5149C41.0086 17.6599 41.0811 17.8351 41.0811 18.0406V18.7163Z" fill="#1A1A1A"/>
<path d="M45.4054 18.7163C45.4054 18.9218 45.3329 19.0971 45.188 19.242C45.043 19.387 44.8678 19.4595 44.6622 19.4595H43.9865C43.781 19.4595 43.6058 19.387 43.4608 19.242C43.3158 19.0971 43.2433 18.9218 43.2433 18.7163V18.0406C43.2433 17.8351 43.3158 17.6598 43.4608 17.5149C43.6058 17.3699 43.781 17.2974 43.9865 17.2974H44.6622C44.8678 17.2974 45.043 17.3699 45.188 17.5149C45.3329 17.6599 45.4054 17.8351 45.4054 18.0406V18.7163Z" fill="#1A1A1A"/>
<path d="M49.7297 17.2974H47.5676V19.4595H49.7297V17.2974Z" fill="#1A1A1A"/>
<path d="M54.0499 17.9899H54.0541V17.2974H51.8919V17.9899H51.8961C51.8933 18.0125 51.8919 18.0293 51.8919 18.0406V18.7163C51.8919 18.9218 51.9644 19.0971 52.1094 19.242C52.2544 19.387 52.4296 19.4595 52.6351 19.4595H53.3108C53.5163 19.4595 53.6916 19.387 53.8366 19.242C53.9815 19.0971 54.0541 18.9218 54.0541 18.7163V18.0406C54.0541 18.0293 54.0527 18.0125 54.0499 17.9899Z" fill="#1A1A1A"/>
<path d="M58.3784 18.0406C58.3784 17.8351 58.3059 17.6598 58.1609 17.5149C58.0159 17.3699 57.8407 17.2974 57.6352 17.2974H56.9595C56.754 17.2974 56.5787 17.3699 56.4337 17.5149C56.2888 17.6598 56.2162 17.8351 56.2162 18.0406V18.7163C56.2162 18.7275 56.2177 18.7445 56.2205 18.767H56.2162V19.4595H58.3784V18.767H58.3742C58.377 18.7445 58.3784 18.7276 58.3784 18.7163V18.0406Z" fill="#1A1A1A"/>
<path d="M23.7838 19.4595H21.6216V20.8784C21.6216 21.0839 21.6941 21.2592 21.8391 21.4041C21.9841 21.5491 22.1594 21.6216 22.3649 21.6216H23.7838V19.4595Z" fill="#1A1A1A"/>
<path d="M25.946 20.2027C25.946 19.9972 25.8735 19.8219 25.7285 19.677C25.5835 19.532 25.4082 19.4595 25.2027 19.4595H23.7838V21.6216H25.946V20.2027Z" fill="#1A1A1A"/>
<path d="M34.5946 20.2027C34.5946 19.9972 34.5221 19.8219 34.3771 19.677C34.2321 19.532 34.0569 19.4595 33.8514 19.4595H33.1757C32.9702 19.4595 32.7949 19.532 32.6499 19.677C32.505 19.822 32.4324 19.9972 32.4324 20.2027V20.8784C32.4324 20.8897 32.4338 20.9066 32.4367 20.9291H32.4324V21.6216H34.5946V20.9291H34.5904C34.5932 20.9066 34.5946 20.8897 34.5946 20.8784V20.2027Z" fill="#1A1A1A"/>
<path d="M38.9189 20.8784C38.9189 21.0839 38.8464 21.2592 38.7014 21.4041C38.5565 21.5491 38.3813 21.6216 38.1757 21.6216H37.5C37.2945 21.6216 37.1193 21.5491 36.9743 21.4041C36.8293 21.2592 36.7568 21.0839 36.7568 20.8784V20.2027C36.7568 19.9972 36.8293 19.822 36.9743 19.677C37.1193 19.532 37.2945 19.4595 37.5 19.4595H38.1757C38.3813 19.4595 38.5565 19.532 38.7014 19.677C38.8464 19.822 38.9189 19.9972 38.9189 20.2027V20.8784Z" fill="#1A1A1A"/>
<path d="M47.5676 20.2027V19.4595H46.1486C45.9431 19.4595 45.7679 19.532 45.6229 19.677C45.4779 19.822 45.4054 19.9972 45.4054 20.2027V20.8784C45.4054 21.0839 45.4779 21.2592 45.6229 21.4041C45.7679 21.5491 45.9431 21.6216 46.1486 21.6216H47.5676V20.2027Z" fill="#1A1A1A"/>
<path d="M49.7297 19.4595H47.5676V21.6216H49.7297V19.4595Z" fill="#1A1A1A"/>
<path d="M58.3784 19.4595H56.2162V21.6216H58.3784V19.4595Z" fill="#1A1A1A"/>
<path d="M17.2973 22.3648V21.6216H15.8784C15.6729 21.6216 15.4976 21.6941 15.3526 21.8391C15.2077 21.9841 15.1351 22.1593 15.1351 22.3648V23.7837H17.2973V22.3648Z" fill="#1A1A1A"/>
<path d="M18.7162 21.6216H17.2973V23.7837H18.7162C18.9217 23.7837 19.097 23.7112 19.242 23.5663C19.3869 23.4213 19.4595 23.246 19.4595 23.0405V22.3648C19.4595 22.1593 19.3869 21.984 19.242 21.8391C19.097 21.6941 18.9217 21.6216 18.7162 21.6216Z" fill="#1A1A1A"/>
<path d="M25.946 21.6216H23.7838V23.7837H25.946V21.6216Z" fill="#1A1A1A"/>
<path d="M28.1081 22.3648C28.1081 22.1593 28.0356 21.984 27.8907 21.8391C27.7457 21.6941 27.5704 21.6216 27.3649 21.6216H25.946V23.7837H28.1081V22.3648Z" fill="#1A1A1A"/>
<path d="M34.5946 21.6216H32.4324V23.7837H34.5946V21.6216Z" fill="#1A1A1A"/>
<path d="M45.4054 23.0405C45.4054 23.2461 45.3329 23.4213 45.188 23.5663C45.043 23.7112 44.8678 23.7837 44.6622 23.7837H43.9865C43.781 23.7837 43.6058 23.7112 43.4608 23.5663C43.3158 23.4213 43.2433 23.2461 43.2433 23.0405V22.3648C43.2433 22.1593 43.3158 21.9841 43.4608 21.8391C43.6058 21.6941 43.781 21.6216 43.9865 21.6216H44.6622C44.8678 21.6216 45.043 21.6941 45.188 21.8391C45.3329 21.9841 45.4054 22.1593 45.4054 22.3648V23.0405Z" fill="#1A1A1A"/>
<path d="M49.7255 22.3141H49.7297V21.6216H47.5676V22.3141H47.5718C47.569 22.3367 47.5676 22.3536 47.5676 22.3648V23.0405C47.5676 23.246 47.6401 23.4213 47.7851 23.5663C47.9301 23.7112 48.1053 23.7837 48.3108 23.7837H48.9865C49.192 23.7837 49.3673 23.7112 49.5122 23.5663C49.6572 23.4213 49.7297 23.246 49.7297 23.0405V22.3648C49.7297 22.3536 49.7284 22.3367 49.7255 22.3141Z" fill="#1A1A1A"/>
<path d="M54.0541 22.3648C54.0541 22.1593 53.9815 21.984 53.8366 21.8391C53.6916 21.6941 53.5163 21.6216 53.3108 21.6216H52.6351C52.4296 21.6216 52.2544 21.6941 52.1094 21.8391C51.9644 21.9841 51.8919 22.1593 51.8919 22.3648V23.0405C51.8919 23.0518 51.8933 23.0687 51.8961 23.0912H51.8919V23.7837H54.0541V23.0912H54.0499C54.0527 23.0687 54.0541 23.0518 54.0541 23.0405V22.3648Z" fill="#1A1A1A"/>
<path d="M58.3742 22.3141H58.3784V21.6216H56.2162V22.3141H56.2205C56.2177 22.3367 56.2162 22.3536 56.2162 22.3648V23.0405C56.2162 23.246 56.2887 23.4213 56.4337 23.5663C56.5787 23.7112 56.754 23.7837 56.9595 23.7837H57.6352C57.8407 23.7837 58.0159 23.7112 58.1609 23.5663C58.3059 23.4213 58.3784 23.246 58.3784 23.0405V22.3648C58.3784 22.3536 58.377 22.3367 58.3742 22.3141Z" fill="#1A1A1A"/>
<path d="M62.7027 23.0405C62.7027 23.2461 62.6301 23.4213 62.4852 23.5663C62.3402 23.7112 62.165 23.7837 61.9594 23.7837H61.2838C61.0783 23.7837 60.903 23.7112 60.758 23.5663C60.613 23.4213 60.5405 23.2461 60.5405 23.0405V22.3648C60.5405 22.1593 60.613 21.9841 60.758 21.8391C60.903 21.6941 61.0783 21.6216 61.2838 21.6216H61.9594C62.165 21.6216 62.3403 21.6941 62.4852 21.8391C62.6302 21.9841 62.7027 22.1593 62.7027 22.3648V23.0405Z" fill="#1A1A1A"/>
<path d="M67.027 22.3648C67.027 22.1593 66.9545 21.984 66.8095 21.8391C66.6646 21.6941 66.4893 21.6216 66.2838 21.6216H65.6081C65.4026 21.6216 65.2273 21.6941 65.0824 21.8391C64.9374 21.9841 64.8649 22.1593 64.8649 22.3648V23.0405C64.8649 23.0518 64.8663 23.0687 64.8691 23.0912H64.8649V23.7837H67.027V23.0912H67.0228C67.0257 23.0687 67.027 23.0518 67.027 23.0405V22.3648Z" fill="#1A1A1A"/>
<path d="M71.3514 23.0405C71.3514 23.2461 71.2788 23.4213 71.1339 23.5663C70.9889 23.7112 70.8137 23.7837 70.6081 23.7837H69.9325C69.727 23.7837 69.5517 23.7112 69.4067 23.5663C69.2617 23.4213 69.1892 23.2461 69.1892 23.0405V22.3648C69.1892 22.1593 69.2617 21.9841 69.4067 21.8391C69.5517 21.6941 69.727 21.6216 69.9325 21.6216H70.6081C70.8137 21.6216 70.9889 21.6941 71.1339 21.8391C71.2789 21.9841 71.3514 22.1593 71.3514 22.3648V23.0405Z" fill="#1A1A1A"/>
<path d="M75.6757 23.0405C75.6757 23.2461 75.6032 23.4213 75.4582 23.5663C75.3132 23.7112 75.138 23.7837 74.9325 23.7837H74.2568C74.0513 23.7837 73.876 23.7112 73.7311 23.5663C73.5861 23.4213 73.5135 23.2461 73.5135 23.0405V22.3648C73.5135 22.1593 73.586 21.9841 73.731 21.8391C73.8761 21.6941 74.0513 21.6216 74.2568 21.6216H74.9325C75.138 21.6216 75.3133 21.6941 75.4582 21.8391C75.6032 21.9841 75.6757 22.1593 75.6757 22.3648V23.0405Z" fill="#1A1A1A"/>
<path d="M6.4865 24.5271V23.7838H5.06758C4.86207 23.7838 4.68681 23.8563 4.54183 24.0013C4.39686 24.1463 4.32434 24.3215 4.32434 24.5271V25.946H6.4865V24.5271Z" fill="#1A1A1A"/>
<path d="M8.64867 23.7838H6.48651V25.946H8.64867V23.7838Z" fill="#1A1A1A"/>
<path d="M10.0676 23.7838H8.64868V25.946H10.0676C10.2731 25.946 10.4484 25.8735 10.5934 25.7285C10.7383 25.5835 10.8108 25.4082 10.8108 25.2027V24.5271C10.8108 24.3215 10.7383 24.1463 10.5934 24.0013C10.4484 23.8563 10.2731 23.7838 10.0676 23.7838Z" fill="#1A1A1A"/>
<path d="M17.2931 24.4764H17.2973V23.7838H15.1351V24.4764H15.1393C15.1365 24.4989 15.1351 24.5158 15.1351 24.5271V25.2027C15.1351 25.4082 15.2076 25.5835 15.3526 25.7285C15.4976 25.8735 15.6729 25.946 15.8784 25.946H16.5541C16.7596 25.946 16.9348 25.8735 17.0798 25.7285C17.2248 25.5835 17.2973 25.4082 17.2973 25.2027V24.5271C17.2973 24.5158 17.2959 24.4989 17.2931 24.4764Z" fill="#1A1A1A"/>
<path d="M23.7838 24.5271V23.7838H22.3649C22.1594 23.7838 21.9841 23.8563 21.8391 24.0013C21.6942 24.1463 21.6216 24.3215 21.6216 24.5271V25.946H23.7838V24.5271Z" fill="#1A1A1A"/>
<path d="M25.946 23.7838H23.7838V25.946H25.946V23.7838Z" fill="#1A1A1A"/>
<path d="M28.1081 23.7838H25.946V25.946H27.3649C27.5704 25.946 27.7457 25.8735 27.8907 25.7285C28.0356 25.5835 28.1081 25.4082 28.1081 25.2027V23.7838Z" fill="#1A1A1A"/>
<path d="M34.5946 23.7838H32.4324V25.946H34.5946V23.7838Z" fill="#1A1A1A"/>
<path d="M38.9189 24.5271V23.7838H37.5C37.2945 23.7838 37.1192 23.8563 36.9743 24.0013C36.8293 24.1463 36.7568 24.3215 36.7568 24.5271V25.2027C36.7568 25.4082 36.8293 25.5835 36.9743 25.7285C37.1193 25.8735 37.2945 25.946 37.5 25.946H38.9189V24.5271Z" fill="#1A1A1A"/>
<path d="M41.0811 24.5271C41.0811 24.3215 41.0086 24.1463 40.8636 24.0013C40.7186 23.8563 40.5434 23.7838 40.3379 23.7838H38.9189V25.946H41.0811V24.5271Z" fill="#1A1A1A"/>
<path d="M51.8919 24.5271V23.7838H50.473C50.2675 23.7838 50.0922 23.8563 49.9472 24.0013C49.8023 24.1463 49.7297 24.3215 49.7297 24.5271V25.2027C49.7297 25.4082 49.8022 25.5835 49.9472 25.7285C50.0922 25.8735 50.2675 25.946 50.473 25.946H51.8919V24.5271Z" fill="#1A1A1A"/>
<path d="M54.0541 23.7838H51.8919V25.946H54.0541V23.7838Z" fill="#1A1A1A"/>
<path d="M55.473 23.7838H54.0541V25.946H55.473C55.6785 25.946 55.8538 25.8735 55.9987 25.7285C56.1437 25.5835 56.2162 25.4082 56.2162 25.2027V24.5271C56.2162 24.3215 56.1437 24.1463 55.9987 24.0013C55.8538 23.8563 55.6785 23.7838 55.473 23.7838Z" fill="#1A1A1A"/>
<path d="M60.5406 24.5271C60.5406 24.3215 60.4681 24.1463 60.3231 24.0013C60.1781 23.8563 60.0029 23.7838 59.7973 23.7838H59.1217C58.9161 23.7838 58.7409 23.8563 58.5959 24.0013C58.4509 24.1463 58.3784 24.3215 58.3784 24.5271V25.2027C58.3784 25.214 58.3798 25.2309 58.3826 25.2534H58.3784V25.946H60.5406V25.2534H60.5364C60.5392 25.2309 60.5406 25.214 60.5406 25.2027V24.5271Z" fill="#1A1A1A"/>
<path d="M64.8649 24.5271V23.7838H63.4459C63.2404 23.7838 63.0652 23.8563 62.9202 24.0013C62.7752 24.1463 62.7027 24.3215 62.7027 24.5271V25.946H64.8649V24.5271Z" fill="#1A1A1A"/>
<path d="M67.027 23.7838H64.8649V25.946H67.027V23.7838Z" fill="#1A1A1A"/>
<path d="M68.446 23.7838H67.027V25.946H68.446C68.6515 25.946 68.8267 25.8735 68.9717 25.7285C69.1167 25.5835 69.1892 25.4082 69.1892 25.2027V24.5271C69.1892 24.3215 69.1167 24.1463 68.9717 24.0013C68.8267 23.8563 68.6515 23.7838 68.446 23.7838Z" fill="#1A1A1A"/>
<path d="M73.5135 24.5271C73.5135 24.3215 73.441 24.1463 73.296 24.0013C73.1511 23.8563 72.9758 23.7838 72.7703 23.7838H72.0946C71.8891 23.7838 71.7138 23.8563 71.5689 24.0013C71.4239 24.1463 71.3514 24.3215 71.3514 24.5271V25.2027C71.3514 25.214 71.3528 25.2309 71.3556 25.2534H71.3514V25.946H73.5135V25.2534H73.5093C73.5122 25.2309 73.5135 25.214 73.5135 25.2027V24.5271Z" fill="#1A1A1A"/>
<path d="M6.4865 25.9459H4.32434V28.1081H6.4865V25.9459Z" fill="#1A1A1A"/>
<path d="M19.4595 26.6892V25.9459H18.0405C17.835 25.9459 17.6598 26.0184 17.5148 26.1634C17.3698 26.3084 17.2973 26.4837 17.2973 26.6892V27.3648C17.2973 27.5704 17.3698 27.7456 17.5148 27.8906C17.6598 28.0356 17.835 28.1081 18.0405 28.1081H19.4595V26.6892Z" fill="#1A1A1A"/>
<path d="M21.6216 25.9459H19.4595V28.1081H21.6216V25.9459Z" fill="#1A1A1A"/>
<path d="M23.7838 25.9459H21.6216V28.1081H23.7838V25.9459Z" fill="#1A1A1A"/>
<path d="M30.2703 26.6892C30.2703 26.4837 30.1978 26.3084 30.0528 26.1634C29.9079 26.0184 29.7326 25.9459 29.5271 25.9459H28.8514C28.6459 25.9459 28.4706 26.0184 28.3256 26.1634C28.1807 26.3084 28.1082 26.4837 28.1082 26.6892V27.3648C28.1082 27.3761 28.1096 27.393 28.1124 27.4155H28.1082V28.1081H30.2703V27.4155H30.2661C30.269 27.393 30.2703 27.3761 30.2703 27.3648V26.6892Z" fill="#1A1A1A"/>
<path d="M34.5946 25.9459H32.4324V28.1081H34.5946V25.9459Z" fill="#1A1A1A"/>
<path d="M41.0811 25.9459H38.9189V28.1081H41.0811V25.9459Z" fill="#1A1A1A"/>
<path d="M45.4054 27.3648C45.4054 27.5704 45.3329 27.7456 45.188 27.8906C45.043 28.0355 44.8678 28.1081 44.6622 28.1081H43.9865C43.781 28.1081 43.6058 28.0355 43.4608 27.8906C43.3158 27.7456 43.2433 27.5704 43.2433 27.3648V26.6892C43.2433 26.4837 43.3158 26.3084 43.4608 26.1634C43.6058 26.0184 43.781 25.9459 43.9865 25.9459H44.6622C44.8678 25.9459 45.043 26.0184 45.188 26.1634C45.3329 26.3084 45.4054 26.4837 45.4054 26.6892V27.3648Z" fill="#1A1A1A"/>
<path d="M54.0499 26.6385H54.0541V25.9459H51.8919V26.6385H51.8961C51.8933 26.661 51.8919 26.6779 51.8919 26.6892V27.3648C51.8919 27.5704 51.9644 27.7456 52.1094 27.8906C52.2544 28.0356 52.4296 28.1081 52.6351 28.1081H53.3108C53.5163 28.1081 53.6916 28.0356 53.8366 27.8906C53.9815 27.7456 54.0541 27.5704 54.0541 27.3648V26.6892C54.0541 26.6779 54.0527 26.661 54.0499 26.6385Z" fill="#1A1A1A"/>
<path d="M58.3784 26.6892V25.9459H56.9595C56.754 25.9459 56.5787 26.0184 56.4337 26.1634C56.2888 26.3084 56.2162 26.4837 56.2162 26.6892V28.1081H58.3784V26.6892Z" fill="#1A1A1A"/>
<path d="M60.5406 25.9459H58.3784V28.1081H60.5406V25.9459Z" fill="#1A1A1A"/>
<path d="M62.7027 25.9459H60.5405V28.1081H62.7027V25.9459Z" fill="#1A1A1A"/>
<path d="M64.8649 25.9459H62.7027V28.1081H64.8649V25.9459Z" fill="#1A1A1A"/>
<path d="M73.5135 25.9459H71.3514V28.1081H73.5135V25.9459Z" fill="#1A1A1A"/>
<path d="M6.4865 28.1082H4.32434V29.5271C4.32434 29.7326 4.39684 29.9079 4.54183 30.0528C4.68683 30.1978 4.86207 30.2703 5.06758 30.2703H6.4865V28.1082Z" fill="#1A1A1A"/>
<path d="M8.64867 28.8514C8.64867 28.6459 8.57615 28.4706 8.43118 28.3256C8.28621 28.1807 8.11094 28.1082 7.90543 28.1082H6.48651V30.2703H8.64867V28.8514Z" fill="#1A1A1A"/>
<path d="M15.1351 29.5271C15.1351 29.7326 15.0626 29.9079 14.9176 30.0528C14.7727 30.1978 14.5974 30.2703 14.3919 30.2703H13.7162C13.5107 30.2703 13.3354 30.1978 13.1905 30.0528C13.0455 29.9079 12.973 29.7326 12.973 29.5271V28.8514C12.973 28.6459 13.0455 28.4706 13.1905 28.3257C13.3355 28.1807 13.5107 28.1082 13.7162 28.1082H14.3919C14.5975 28.1082 14.7727 28.1807 14.9176 28.3256C15.0626 28.4707 15.1351 28.6459 15.1351 28.8514V29.5271Z" fill="#1A1A1A"/>
<path d="M23.7838 28.1082H21.6216V29.5271C21.6216 29.7326 21.6941 29.9079 21.8391 30.0528C21.9841 30.1978 22.1594 30.2703 22.3649 30.2703H23.7838V28.1082Z" fill="#1A1A1A"/>
<path d="M25.946 28.1082H23.7838V30.2703H25.946V28.1082Z" fill="#1A1A1A"/>
<path d="M28.1081 28.1082H25.946V30.2703H28.1081V28.1082Z" fill="#1A1A1A"/>
<path d="M30.2703 28.1082H28.1082V30.2703H30.2703V28.1082Z" fill="#1A1A1A"/>
<path d="M32.4324 28.1082H30.2703V30.2703H32.4324V28.1082Z" fill="#1A1A1A"/>
<path d="M34.5946 28.1082H32.4324V30.2703H34.5946V28.1082Z" fill="#1A1A1A"/>
<path d="M41.0811 28.1082H38.9189V29.5271C38.9189 29.7326 38.9914 29.9079 39.1364 30.0528C39.2814 30.1978 39.4567 30.2703 39.6622 30.2703H41.0811V28.1082Z" fill="#1A1A1A"/>
<path d="M42.5 28.1082H41.0811V30.2703H42.5C42.7055 30.2703 42.8808 30.1978 43.0258 30.0528C43.1708 29.9079 43.2433 29.7326 43.2433 29.5271V28.8514C43.2433 28.6459 43.1708 28.4706 43.0258 28.3256C42.8808 28.1807 42.7055 28.1082 42.5 28.1082Z" fill="#1A1A1A"/>
<path d="M47.5676 28.8514V28.1082H46.1486C45.9431 28.1082 45.7679 28.1807 45.6229 28.3256C45.4779 28.4706 45.4054 28.6459 45.4054 28.8514V29.5271C45.4054 29.7326 45.4779 29.9079 45.6229 30.0528C45.7679 30.1978 45.9431 30.2703 46.1486 30.2703H47.5676V28.8514Z" fill="#1A1A1A"/>
<path d="M49.7297 28.1082H47.5676V30.2703H49.7297V28.1082Z" fill="#1A1A1A"/>
<path d="M51.8919 28.8514C51.8919 28.6459 51.8194 28.4706 51.6744 28.3256C51.5294 28.1807 51.3542 28.1082 51.1487 28.1082H49.7297V30.2703H51.8919V28.8514Z" fill="#1A1A1A"/>
<path d="M58.3784 28.1082H56.2162V30.2703H58.3784V28.1082Z" fill="#1A1A1A"/>
<path d="M62.7027 28.1082H60.5405V30.2703H62.7027V28.1082Z" fill="#1A1A1A"/>
<path d="M64.8649 28.1082H62.7027V30.2703H64.8649V28.1082Z" fill="#1A1A1A"/>
<path d="M69.1892 28.8514V28.1082H67.7703C67.5648 28.1082 67.3895 28.1807 67.2445 28.3256C67.0996 28.4706 67.027 28.6459 67.027 28.8514V29.5271C67.027 29.7326 67.0995 29.9079 67.2445 30.0528C67.3895 30.1978 67.5648 30.2703 67.7703 30.2703H69.1892V28.8514Z" fill="#1A1A1A"/>
<path d="M71.3514 28.1082H69.1892V30.2703H71.3514V28.1082Z" fill="#1A1A1A"/>
<path d="M73.5135 28.1082H71.3514V30.2703H73.5135V28.1082Z" fill="#1A1A1A"/>
<path d="M75.6757 28.8514C75.6757 28.6459 75.6032 28.4706 75.4582 28.3256C75.3132 28.1807 75.138 28.1082 74.9325 28.1082H73.5135V30.2703H75.6757V28.8514Z" fill="#1A1A1A"/>
<path d="M8.64867 30.2703H6.48651V32.4324H8.64867V30.2703Z" fill="#1A1A1A"/>
<path d="M17.2973 31.0135V30.2703H15.8784C15.6729 30.2703 15.4976 30.3428 15.3526 30.4878C15.2077 30.6328 15.1351 30.808 15.1351 31.0135V32.4324H17.2973V31.0135Z" fill="#1A1A1A"/>
<path d="M19.4595 30.2703H17.2973V32.4324H19.4595V30.2703Z" fill="#1A1A1A"/>
<path d="M20.8784 30.2703H19.4595V32.4324H20.8784C21.0839 32.4324 21.2592 32.3599 21.4041 32.2149C21.5491 32.07 21.6216 31.8947 21.6216 31.6892V31.0135C21.6216 30.808 21.5491 30.6327 21.4041 30.4878C21.2592 30.3428 21.0839 30.2703 20.8784 30.2703Z" fill="#1A1A1A"/>
<path d="M28.1081 30.2703H25.946V31.6892C25.946 31.8947 26.0185 32.07 26.1635 32.2149C26.3085 32.3599 26.4837 32.4324 26.6892 32.4324H28.1081V30.2703Z" fill="#1A1A1A"/>
<path d="M30.2703 30.2703H28.1082V32.4324H29.5271C29.7326 32.4324 29.9079 32.3599 30.0528 32.2149C30.1978 32.07 30.2703 31.8947 30.2703 31.6892V30.2703Z" fill="#1A1A1A"/>
<path d="M34.5946 30.2703H32.4324V31.6892C32.4324 31.8947 32.5049 32.07 32.6499 32.2149C32.7949 32.3599 32.9702 32.4324 33.1757 32.4324H34.5946V30.2703Z" fill="#1A1A1A"/>
<path d="M36.0135 30.2703H34.5946V32.4324H36.0135C36.219 32.4324 36.3943 32.3599 36.5393 32.2149C36.6842 32.07 36.7568 31.8947 36.7568 31.6892V31.0135C36.7568 30.808 36.6842 30.6327 36.5393 30.4878C36.3943 30.3428 36.219 30.2703 36.0135 30.2703Z" fill="#1A1A1A"/>
<path d="M45.4054 31.6892C45.4054 31.8947 45.3329 32.07 45.188 32.2149C45.043 32.3599 44.8678 32.4324 44.6622 32.4324H43.9865C43.781 32.4324 43.6058 32.3599 43.4608 32.2149C43.3158 32.07 43.2433 31.8947 43.2433 31.6892V31.0135C43.2433 30.808 43.3158 30.6328 43.4608 30.4878C43.6058 30.3428 43.781 30.2703 43.9865 30.2703H44.6622C44.8678 30.2703 45.043 30.3428 45.188 30.4878C45.3329 30.6328 45.4054 30.808 45.4054 31.0135V31.6892Z" fill="#1A1A1A"/>
<path d="M49.7297 30.2703H47.5676V31.6892C47.5676 31.8947 47.6401 32.07 47.7851 32.2149C47.9301 32.3599 48.1053 32.4324 48.3108 32.4324H49.7297V30.2703Z" fill="#1A1A1A"/>
<path d="M51.8919 30.2703H49.7297V32.4324H51.1487C51.3542 32.4324 51.5294 32.3599 51.6744 32.2149C51.8194 32.07 51.8919 31.8947 51.8919 31.6892V30.2703Z" fill="#1A1A1A"/>
<path d="M56.2162 31.0135V30.2703H54.7973C54.5918 30.2703 54.4165 30.3428 54.2716 30.4878C54.1266 30.6328 54.0541 30.808 54.0541 31.0135V31.6892C54.0541 31.8947 54.1266 32.07 54.2716 32.2149C54.4166 32.3599 54.5918 32.4324 54.7973 32.4324H56.2162V31.0135Z" fill="#1A1A1A"/>
<path d="M58.3784 30.2703H56.2162V32.4324H57.6352C57.8407 32.4324 58.0159 32.3599 58.1609 32.2149C58.3059 32.07 58.3784 31.8947 58.3784 31.6892V30.2703Z" fill="#1A1A1A"/>
<path d="M62.7027 30.2703H60.5405V32.4324H62.7027V30.2703Z" fill="#1A1A1A"/>
<path d="M64.8649 30.2703H62.7027V32.4324H64.8649V30.2703Z" fill="#1A1A1A"/>
<path d="M75.6757 30.2703H73.5135V32.4324H75.6757V30.2703Z" fill="#1A1A1A"/>
<path d="M6.4865 33.1757V32.4325H5.06758C4.86207 32.4325 4.68681 32.505 4.54183 32.65C4.39686 32.795 4.32434 32.9702 4.32434 33.1757V34.5947H6.4865V33.1757Z" fill="#1A1A1A"/>
<path d="M8.64867 32.4325H6.48651V34.5947H8.64867V32.4325Z" fill="#1A1A1A"/>
<path d="M10.8108 32.4325H8.64868V34.5947H10.8108V32.4325Z" fill="#1A1A1A"/>
<path d="M12.973 32.4325H10.8109V34.5947H12.973V32.4325Z" fill="#1A1A1A"/>
<path d="M15.1351 32.4325H12.973V34.5947H15.1351V32.4325Z" fill="#1A1A1A"/>
<path d="M17.2973 32.4325H15.1351V34.5947H16.5541C16.7596 34.5947 16.9348 34.5221 17.0798 34.3772C17.2248 34.2322 17.2973 34.0569 17.2973 33.8514V32.4325Z" fill="#1A1A1A"/>
<path d="M60.5406 33.1757V32.4325H59.1217C58.9161 32.4325 58.7409 32.505 58.5959 32.65C58.4509 32.795 58.3784 32.9702 58.3784 33.1757V34.5947H60.5406V33.1757Z" fill="#1A1A1A"/>
<path d="M62.7027 32.4325H60.5405V34.5947H62.7027V32.4325Z" fill="#1A1A1A"/>
<path d="M64.8649 32.4325H62.7027V34.5947H64.8649V32.4325Z" fill="#1A1A1A"/>
<path d="M71.3514 33.1757C71.3514 32.9702 71.2789 32.795 71.1339 32.65C70.9889 32.505 70.8136 32.4325 70.6081 32.4325H69.9325C69.7269 32.4325 69.5517 32.505 69.4067 32.65C69.2617 32.795 69.1892 32.9702 69.1892 33.1757V33.8514C69.1892 33.8627 69.1906 33.8796 69.1934 33.9021H69.1892V34.5947H71.3514V33.9021H71.3472C71.35 33.8796 71.3514 33.8627 71.3514 33.8514V33.1757Z" fill="#1A1A1A"/>
<path d="M75.6715 33.1251H75.6757V32.4325H73.5135V33.1251H73.5178C73.515 33.1476 73.5135 33.1645 73.5135 33.1757V33.8514C73.5135 34.0569 73.586 34.2322 73.731 34.3772C73.876 34.5221 74.0513 34.5947 74.2568 34.5947H74.9325C75.138 34.5947 75.3132 34.5221 75.4582 34.3772C75.6032 34.2322 75.6757 34.0569 75.6757 33.8514V33.1757C75.6757 33.1645 75.6743 33.1476 75.6715 33.1251Z" fill="#1A1A1A"/>
<path d="M6.4865 34.5946H4.32434V36.0135C4.32434 36.219 4.39684 36.3943 4.54183 36.5393C4.68683 36.6842 4.86207 36.7568 5.06758 36.7568H6.4865V34.5946Z" fill="#1A1A1A"/>
<path d="M8.64867 34.5946H6.48651V36.7568H8.64867V34.5946Z" fill="#1A1A1A"/>
<path d="M10.8108 34.5946H8.64868V36.7568H10.8108V34.5946Z" fill="#1A1A1A"/>
<path d="M12.973 34.5946H10.8109V36.7568H12.973V34.5946Z" fill="#1A1A1A"/>
<path d="M15.1351 34.5946H12.973V36.7568H15.1351V34.5946Z" fill="#1A1A1A"/>
<path d="M19.4595 35.3378V34.5946H18.0405C17.835 34.5946 17.6598 34.6671 17.5148 34.8121C17.3698 34.9571 17.2973 35.1323 17.2973 35.3378V36.0135C17.2973 36.219 17.3698 36.3943 17.5148 36.5393C17.6598 36.6842 17.835 36.7568 18.0405 36.7568H19.4595V35.3378Z" fill="#1A1A1A"/>
<path d="M20.8784 34.5946H19.4595V36.7568H20.8784C21.0839 36.7568 21.2592 36.6842 21.4041 36.5393C21.5491 36.3943 21.6216 36.219 21.6216 36.0135V35.3378C21.6216 35.1323 21.5491 34.9571 21.4041 34.8121C21.2592 34.6671 21.0839 34.5946 20.8784 34.5946Z" fill="#1A1A1A"/>
<path d="M60.5406 34.5946H58.3784V36.7568H60.5406V34.5946Z" fill="#1A1A1A"/>
<path d="M62.7027 34.5946H60.5405V36.7568H62.7027V34.5946Z" fill="#1A1A1A"/>
<path d="M64.8649 34.5946H62.7027V36.7568H64.8649V34.5946Z" fill="#1A1A1A"/>
<path d="M67.027 34.5946H64.8649V36.7568H67.027V34.5946Z" fill="#1A1A1A"/>
<path d="M69.1892 34.5946H67.027V36.7568H69.1892V34.5946Z" fill="#1A1A1A"/>
<path d="M71.3514 34.5946H69.1892V36.7568H71.3514V34.5946Z" fill="#1A1A1A"/>
<path d="M72.7703 34.5946H71.3514V36.7568H72.7703C72.9758 36.7568 73.1511 36.6842 73.296 36.5393C73.441 36.3943 73.5135 36.219 73.5135 36.0135V35.3378C73.5135 35.1323 73.441 34.9571 73.296 34.8121C73.1511 34.6671 72.9758 34.5946 72.7703 34.5946Z" fill="#1A1A1A"/>
<path d="M10.8066 37.4494H10.8108V36.7568H8.64868V37.4494H8.6529C8.65009 37.4719 8.64868 37.4888 8.64868 37.5001V38.1758C8.64868 38.3813 8.72118 38.5565 8.86617 38.7015C9.01117 38.8465 9.18641 38.919 9.39192 38.919H10.0676C10.2731 38.919 10.4484 38.8465 10.5934 38.7015C10.7383 38.5565 10.8108 38.3813 10.8108 38.1758V37.5001C10.8108 37.4888 10.8095 37.4719 10.8066 37.4494Z" fill="#1A1A1A"/>
<path d="M15.1351 36.7568H12.973V38.1758C12.973 38.3813 13.0455 38.5565 13.1905 38.7015C13.3354 38.8465 13.5107 38.919 13.7162 38.919H15.1351V36.7568Z" fill="#1A1A1A"/>
<path d="M17.2973 37.5001C17.2973 37.2946 17.2248 37.1193 17.0798 36.9743C16.9348 36.8294 16.7596 36.7568 16.5541 36.7568H15.1351V38.919H17.2973V37.5001Z" fill="#1A1A1A"/>
<path d="M60.5406 36.7568H58.3784V38.919H60.5406V36.7568Z" fill="#1A1A1A"/>
<path d="M69.1892 36.7568H67.027V38.1758C67.027 38.3813 67.0995 38.5565 67.2445 38.7015C67.3895 38.8465 67.5648 38.919 67.7703 38.919H69.1892V36.7568Z" fill="#1A1A1A"/>
<path d="M71.3514 36.7568H69.1892V38.919H70.6081C70.8136 38.919 70.9889 38.8465 71.1339 38.7015C71.2789 38.5565 71.3514 38.3813 71.3514 38.1758V36.7568Z" fill="#1A1A1A"/>
<path d="M8.64867 39.6622C8.64867 39.4567 8.57615 39.2814 8.43118 39.1364C8.28621 38.9915 8.11094 38.9189 7.90543 38.9189H7.22975C7.02424 38.9189 6.84898 38.9914 6.704 39.1364C6.55903 39.2814 6.48651 39.4567 6.48651 39.6622V40.3379C6.48651 40.3491 6.48792 40.366 6.49073 40.3885H6.48651V41.0811H8.64867V40.3885H8.64446C8.64731 40.366 8.64867 40.3492 8.64867 40.3379V39.6622Z" fill="#1A1A1A"/>
<path d="M17.2973 38.9189H15.1351V41.0811H17.2973V38.9189Z" fill="#1A1A1A"/>
<path d="M19.4595 38.9189H17.2973V41.0811H19.4595V38.9189Z" fill="#1A1A1A"/>
<path d="M21.6216 39.6622C21.6216 39.4567 21.5491 39.2814 21.4041 39.1364C21.2592 38.9915 21.0839 38.9189 20.8784 38.9189H19.4595V41.0811H21.6216V39.6622Z" fill="#1A1A1A"/>
<path d="M60.5364 39.6115H60.5406V38.9189H58.3784V39.6115H58.3826C58.3798 39.634 58.3784 39.6509 58.3784 39.6622V40.3379C58.3784 40.5434 58.4509 40.7186 58.5959 40.8636C58.7409 41.0086 58.9161 41.0811 59.1217 41.0811H59.7973C60.0029 41.0811 60.1781 41.0086 60.3231 40.8636C60.4681 40.7186 60.5406 40.5434 60.5406 40.3379V39.6622C60.5406 39.6509 60.5392 39.634 60.5364 39.6115Z" fill="#1A1A1A"/>
<path d="M64.8649 39.6622V38.9189H63.4459C63.2404 38.9189 63.0652 38.9914 62.9202 39.1364C62.7752 39.2814 62.7027 39.4567 62.7027 39.6622V40.3379C62.7027 40.5434 62.7752 40.7186 62.9202 40.8636C63.0652 41.0086 63.2404 41.0811 63.4459 41.0811H64.8649V39.6622Z" fill="#1A1A1A"/>
<path d="M66.2838 38.9189H64.8649V41.0811H66.2838C66.4893 41.0811 66.6646 41.0086 66.8095 40.8636C66.9545 40.7186 67.027 40.5434 67.027 40.3379V39.6622C67.027 39.4567 66.9545 39.2814 66.8095 39.1364C66.6646 38.9915 66.4893 38.9189 66.2838 38.9189Z" fill="#1A1A1A"/>
<path d="M73.5135 39.6622V38.9189H72.0946C71.8891 38.9189 71.7138 38.9914 71.5689 39.1364C71.4239 39.2814 71.3514 39.4567 71.3514 39.6622V40.3379C71.3514 40.5434 71.4239 40.7186 71.5689 40.8636C71.7139 41.0086 71.8891 41.0811 72.0946 41.0811H73.5135V39.6622Z" fill="#1A1A1A"/>
<path d="M75.6757 39.6622C75.6757 39.4567 75.6032 39.2814 75.4582 39.1364C75.3132 38.9915 75.138 38.9189 74.9325 38.9189H73.5135V41.0811H75.6757V39.6622Z" fill="#1A1A1A"/>
<path d="M6.4865 41.8243V41.0811H5.06758C4.86207 41.0811 4.68681 41.1536 4.54183 41.2985C4.39686 41.4435 4.32434 41.6188 4.32434 41.8243V42.5C4.32434 42.7055 4.39684 42.8808 4.54183 43.0257C4.68683 43.1707 4.86207 43.2432 5.06758 43.2432H6.4865V41.8243Z" fill="#1A1A1A"/>
<path d="M8.64867 41.0811H6.48651V43.2432H8.64867V41.0811Z" fill="#1A1A1A"/>
<path d="M10.0676 41.0811H8.64868V43.2432H10.0676C10.2731 43.2432 10.4484 43.1707 10.5934 43.0257C10.7383 42.8808 10.8108 42.7055 10.8108 42.5V41.8243C10.8108 41.6188 10.7383 41.4435 10.5934 41.2985C10.4484 41.1536 10.2731 41.0811 10.0676 41.0811Z" fill="#1A1A1A"/>
<path d="M17.2973 41.0811H15.1351V43.2432H17.2973V41.0811Z" fill="#1A1A1A"/>
<path d="M21.6174 41.7736H21.6216V41.0811H19.4595V41.7736H19.4637C19.4609 41.7961 19.4595 41.813 19.4595 41.8243V42.5C19.4595 42.7055 19.532 42.8808 19.677 43.0257C19.822 43.1707 19.9972 43.2432 20.2027 43.2432H20.8784C21.0839 43.2432 21.2592 43.1707 21.4041 43.0257C21.5491 42.8808 21.6216 42.7055 21.6216 42.5V41.8243C21.6216 41.813 21.6203 41.7961 21.6174 41.7736Z" fill="#1A1A1A"/>
<path d="M62.7027 41.8243C62.7027 41.6188 62.6302 41.4435 62.4852 41.2985C62.3402 41.1536 62.165 41.0811 61.9594 41.0811H61.2838C61.0783 41.0811 60.903 41.1536 60.758 41.2985C60.613 41.4435 60.5405 41.6188 60.5405 41.8243V42.5C60.5405 42.5112 60.5419 42.5281 60.5447 42.5507H60.5405V43.2432H62.7027V42.5507H62.6985C62.7013 42.5281 62.7027 42.5113 62.7027 42.5V41.8243Z" fill="#1A1A1A"/>
<path d="M75.6757 41.0811H73.5135V43.2432H75.6757V41.0811Z" fill="#1A1A1A"/>
<path d="M8.64446 43.9358H8.64867V43.2433H6.48651V43.9358H6.49073C6.48792 43.9584 6.48651 43.9753 6.48651 43.9865V44.6622C6.48651 44.8677 6.55901 45.043 6.704 45.188C6.849 45.3329 7.02424 45.4054 7.22975 45.4054H7.90543C8.11094 45.4054 8.28621 45.3329 8.43118 45.188C8.57615 45.043 8.64867 44.8677 8.64867 44.6622V43.9865C8.64867 43.9753 8.64731 43.9584 8.64446 43.9358Z" fill="#1A1A1A"/>
<path d="M15.1351 43.9865V43.2433H13.7162C13.5107 43.2433 13.3354 43.3158 13.1905 43.4608C13.0455 43.6058 12.973 43.781 12.973 43.9865V45.4054H15.1351V43.9865Z" fill="#1A1A1A"/>
<path d="M17.2973 43.2433H15.1351V45.4054H17.2973V43.2433Z" fill="#1A1A1A"/>
<path d="M18.7162 43.2433H17.2973V45.4054H18.7162C18.9217 45.4054 19.097 45.3329 19.242 45.188C19.3869 45.043 19.4595 44.8677 19.4595 44.6622V43.9865C19.4595 43.781 19.3869 43.6058 19.242 43.4608C19.097 43.3158 18.9217 43.2433 18.7162 43.2433Z" fill="#1A1A1A"/>
<path d="M60.5406 43.9865V43.2433H59.1217C58.9161 43.2433 58.7409 43.3158 58.5959 43.4608C58.4509 43.6058 58.3784 43.781 58.3784 43.9865V45.4054H60.5406V43.9865Z" fill="#1A1A1A"/>
<path d="M62.7027 43.2433H60.5405V45.4054H62.7027V43.2433Z" fill="#1A1A1A"/>
<path d="M64.8649 43.2433H62.7027V45.4054H64.8649V43.2433Z" fill="#1A1A1A"/>
<path d="M67.027 43.2433H64.8649V45.4054H67.027V43.2433Z" fill="#1A1A1A"/>
<path d="M69.1892 43.2433H67.027V45.4054H69.1892V43.2433Z" fill="#1A1A1A"/>
<path d="M71.3514 43.9865C71.3514 43.781 71.2789 43.6058 71.1339 43.4608C70.9889 43.3158 70.8136 43.2433 70.6081 43.2433H69.1892V45.4054H71.3514V43.9865Z" fill="#1A1A1A"/>
<path d="M75.6757 43.2433H73.5135V45.4054H75.6757V43.2433Z" fill="#1A1A1A"/>
<path d="M6.4865 46.8243C6.4865 47.0299 6.41396 47.2051 6.26901 47.3501C6.12404 47.495 5.94882 47.5676 5.74326 47.5676H5.06758C4.86209 47.5676 4.68683 47.495 4.54185 47.3501C4.39686 47.2051 4.32434 47.0299 4.32434 46.8243V46.1486C4.32434 45.9431 4.39684 45.7679 4.54183 45.6229C4.68685 45.4779 4.86209 45.4054 5.06758 45.4054H5.74326C5.94884 45.4054 6.12408 45.4779 6.26901 45.6229C6.41398 45.7679 6.4865 45.9431 6.4865 46.1486V46.8243Z" fill="#1A1A1A"/>
<path d="M15.1351 45.4054H12.973V47.5676H15.1351V45.4054Z" fill="#1A1A1A"/>
<path d="M21.6216 46.1486C21.6216 45.9431 21.5491 45.7679 21.4041 45.6229C21.2592 45.4779 21.0839 45.4054 20.8784 45.4054H20.2027C19.9972 45.4054 19.8219 45.4779 19.677 45.6229C19.532 45.7679 19.4595 45.9431 19.4595 46.1486V46.8243C19.4595 46.8356 19.4609 46.8525 19.4637 46.875H19.4595V47.5676H21.6216V46.875H21.6174C21.6203 46.8525 21.6216 46.8356 21.6216 46.8243V46.1486Z" fill="#1A1A1A"/>
<path d="M60.5364 46.098H60.5406V45.4054H58.3784V46.098H58.3826C58.3798 46.1205 58.3784 46.1374 58.3784 46.1486V46.8243C58.3784 47.0298 58.4509 47.2051 58.5959 47.3501C58.7409 47.495 58.9161 47.5676 59.1217 47.5676H59.7973C60.0029 47.5676 60.1781 47.495 60.3231 47.3501C60.4681 47.2051 60.5406 47.0298 60.5406 46.8243V46.1486C60.5406 46.1374 60.5392 46.1205 60.5364 46.098Z" fill="#1A1A1A"/>
<path d="M64.8649 45.4054H62.7027V47.5676H64.8649V45.4054Z" fill="#1A1A1A"/>
<path d="M67.027 45.4054H64.8649V47.5676H67.027V45.4054Z" fill="#1A1A1A"/>
<path d="M69.1892 45.4054H67.027V47.5676H69.1892V45.4054Z" fill="#1A1A1A"/>
<path d="M71.3514 45.4054H69.1892V47.5676H71.3514V45.4054Z" fill="#1A1A1A"/>
<path d="M73.5135 45.4054H71.3514V47.5676H73.5135V45.4054Z" fill="#1A1A1A"/>
<path d="M75.6757 45.4054H73.5135V47.5676H75.6757V45.4054Z" fill="#1A1A1A"/>
<path d="M8.64867 48.3109V47.5676H7.22975C7.02424 47.5676 6.84898 47.6401 6.704 47.7851C6.55903 47.9301 6.48651 48.1054 6.48651 48.3109V48.9865C6.48651 49.1921 6.55901 49.3673 6.704 49.5123C6.849 49.6573 7.02424 49.7298 7.22975 49.7298H8.64867V48.3109Z" fill="#1A1A1A"/>
<path d="M10.8108 47.5676H8.64868V49.7298H10.8108V47.5676Z" fill="#1A1A1A"/>
<path d="M12.973 47.5676H10.8109V49.7298H12.973V47.5676Z" fill="#1A1A1A"/>
<path d="M15.1351 47.5676H12.973V49.7298H15.1351V47.5676Z" fill="#1A1A1A"/>
<path d="M17.2973 47.5676H15.1351V49.7298H17.2973V47.5676Z" fill="#1A1A1A"/>
<path d="M19.4595 47.5676H17.2973V49.7298H19.4595V47.5676Z" fill="#1A1A1A"/>
<path d="M21.6216 47.5676H19.4595V49.7298H21.6216V47.5676Z" fill="#1A1A1A"/>
<path d="M23.7838 47.5676H21.6216V49.7298H23.7838V47.5676Z" fill="#1A1A1A"/>
<path d="M25.946 48.3109C25.946 48.1054 25.8735 47.9301 25.7285 47.7851C25.5835 47.6401 25.4082 47.5676 25.2027 47.5676H23.7838V49.7298H25.946V48.3109Z" fill="#1A1A1A"/>
<path d="M30.2703 48.3109V47.5676H28.8514C28.6459 47.5676 28.4706 47.6401 28.3256 47.7851C28.1807 47.9301 28.1082 48.1054 28.1082 48.3109V49.7298H30.2703V48.3109Z" fill="#1A1A1A"/>
<path d="M31.6892 47.5676H30.2703V49.7298H31.6892C31.8947 49.7298 32.07 49.6573 32.2149 49.5123C32.3599 49.3673 32.4324 49.1921 32.4324 48.9865V48.3109C32.4324 48.1054 32.3599 47.9301 32.2149 47.7851C32.07 47.6401 31.8947 47.5676 31.6892 47.5676Z" fill="#1A1A1A"/>
<path d="M36.7568 48.3109C36.7568 48.1054 36.6842 47.9301 36.5393 47.7851C36.3943 47.6401 36.219 47.5676 36.0135 47.5676H35.3378C35.1323 47.5676 34.9571 47.6401 34.8121 47.7851C34.6671 47.9301 34.5946 48.1054 34.5946 48.3109V48.9865C34.5946 48.9978 34.596 49.0147 34.5988 49.0372H34.5946V49.7298H36.7568V49.0372H36.7526C36.7554 49.0147 36.7568 48.9978 36.7568 48.9865V48.3109Z" fill="#1A1A1A"/>
<path d="M41.0811 48.9865C41.0811 49.1921 41.0086 49.3673 40.8636 49.5123C40.7186 49.6572 40.5434 49.7298 40.3379 49.7298H39.6622C39.4567 49.7298 39.2814 49.6572 39.1365 49.5123C38.9915 49.3673 38.9189 49.1921 38.9189 48.9865V48.3109C38.9189 48.1054 38.9914 47.9301 39.1364 47.7851C39.2815 47.6401 39.4567 47.5676 39.6622 47.5676H40.3379C40.5434 47.5676 40.7187 47.6401 40.8636 47.7851C41.0086 47.9301 41.0811 48.1054 41.0811 48.3109V48.9865Z" fill="#1A1A1A"/>
<path d="M45.4054 48.3109C45.4054 48.1054 45.3329 47.9301 45.188 47.7851C45.043 47.6401 44.8677 47.5676 44.6622 47.5676H43.9865C43.781 47.5676 43.6058 47.6401 43.4608 47.7851C43.3158 47.9301 43.2433 48.1054 43.2433 48.3109V48.9865C43.2433 48.9978 43.2447 49.0147 43.2475 49.0372H43.2433V49.7298H45.4054V49.0372H45.4012C45.4041 49.0147 45.4054 48.9978 45.4054 48.9865V48.3109Z" fill="#1A1A1A"/>
<path d="M54.0541 48.3109C54.0541 48.1054 53.9815 47.9301 53.8366 47.7851C53.6916 47.6401 53.5163 47.5676 53.3108 47.5676H52.6351C52.4296 47.5676 52.2544 47.6401 52.1094 47.7851C51.9644 47.9301 51.8919 48.1054 51.8919 48.3109V48.9865C51.8919 48.9978 51.8933 49.0147 51.8961 49.0372H51.8919V49.7298H54.0541V49.0372H54.0499C54.0527 49.0147 54.0541 48.9978 54.0541 48.9865V48.3109Z" fill="#1A1A1A"/>
<path d="M58.3784 48.9865C58.3784 49.1921 58.3059 49.3673 58.1609 49.5123C58.0159 49.6572 57.8407 49.7298 57.6352 49.7298H56.9595C56.754 49.7298 56.5787 49.6572 56.4338 49.5123C56.2888 49.3673 56.2162 49.1921 56.2162 48.9865V48.3109C56.2162 48.1054 56.2887 47.9301 56.4337 47.7851C56.5788 47.6401 56.754 47.5676 56.9595 47.5676H57.6352C57.8407 47.5676 58.016 47.6401 58.1609 47.7851C58.3059 47.9301 58.3784 48.1054 58.3784 48.3109V48.9865Z" fill="#1A1A1A"/>
<path d="M64.8649 47.5676H62.7027V48.9865C62.7027 49.1921 62.7752 49.3673 62.9202 49.5123C63.0652 49.6573 63.2404 49.7298 63.4459 49.7298H64.8649V47.5676Z" fill="#1A1A1A"/>
<path d="M67.027 47.5676H64.8649V49.7298H67.027V47.5676Z" fill="#1A1A1A"/>
<path d="M69.1892 47.5676H67.027V49.7298H69.1892V47.5676Z" fill="#1A1A1A"/>
<path d="M75.6715 48.2602H75.6757V47.5676H73.5135V48.2602H73.5178C73.515 48.2827 73.5135 48.2996 73.5135 48.3109V48.9865C73.5135 49.1921 73.586 49.3673 73.731 49.5123C73.876 49.6573 74.0513 49.7298 74.2568 49.7298H74.9325C75.138 49.7298 75.3132 49.6573 75.4582 49.5123C75.6032 49.3673 75.6757 49.1921 75.6757 48.9865V48.3109C75.6757 48.2996 75.6743 48.2827 75.6715 48.2602Z" fill="#1A1A1A"/>
<path d="M6.4865 50.473C6.4865 50.2675 6.41398 50.0922 6.26901 49.9472C6.12404 49.8023 5.94877 49.7297 5.74326 49.7297H5.06758C4.86207 49.7297 4.68681 49.8022 4.54183 49.9472C4.39686 50.0922 4.32434 50.2675 4.32434 50.473V51.1487C4.32434 51.1599 4.32575 51.1768 4.32856 51.1993H4.32434V51.8919H6.4865V51.1993H6.48229C6.48514 51.1768 6.4865 51.1599 6.4865 51.1487V50.473Z" fill="#1A1A1A"/>
<path d="M12.973 49.7297H10.8109V51.8919H12.973V49.7297Z" fill="#1A1A1A"/>
<path d="M25.946 49.7297H23.7838V51.1487C23.7838 51.3542 23.8563 51.5294 24.0013 51.6744C24.1463 51.8194 24.3215 51.8919 24.5271 51.8919H25.946V49.7297Z" fill="#1A1A1A"/>
<path d="M28.1081 49.7297H25.946V51.8919H28.1081V49.7297Z" fill="#1A1A1A"/>
<path d="M30.2703 49.7297H28.1082V51.8919H30.2703V49.7297Z" fill="#1A1A1A"/>
<path d="M34.5946 50.473V49.7297H33.1757C32.9702 49.7297 32.7949 49.8022 32.6499 49.9472C32.505 50.0922 32.4324 50.2675 32.4324 50.473V51.8919H34.5946V50.473Z" fill="#1A1A1A"/>
<path d="M36.7568 49.7297H34.5946V51.8919H36.7568V49.7297Z" fill="#1A1A1A"/>
<path d="M38.9189 50.473C38.9189 50.2675 38.8464 50.0922 38.7014 49.9472C38.5565 49.8023 38.3812 49.7297 38.1757 49.7297H36.7568V51.8919H38.9189V50.473Z" fill="#1A1A1A"/>
<path d="M43.2433 50.473V49.7297H41.8244C41.6188 49.7297 41.4436 49.8022 41.2986 49.9472C41.1536 50.0922 41.0811 50.2675 41.0811 50.473V51.1487C41.0811 51.3542 41.1536 51.5294 41.2986 51.6744C41.4436 51.8194 41.6188 51.8919 41.8244 51.8919H43.2433V50.473Z" fill="#1A1A1A"/>
<path d="M45.4054 49.7297H43.2433V51.8919H45.4054V49.7297Z" fill="#1A1A1A"/>
<path d="M51.8919 50.473V49.7297H50.473C50.2675 49.7297 50.0922 49.8022 49.9472 49.9472C49.8023 50.0922 49.7297 50.2675 49.7297 50.473V51.8919H51.8919V50.473Z" fill="#1A1A1A"/>
<path d="M54.0541 49.7297H51.8919V51.8919H53.3108C53.5163 51.8919 53.6916 51.8194 53.8366 51.6744C53.9815 51.5294 54.0541 51.3542 54.0541 51.1487V49.7297Z" fill="#1A1A1A"/>
<path d="M62.7027 51.1487C62.7027 51.3542 62.6301 51.5294 62.4852 51.6744C62.3402 51.8194 62.165 51.8919 61.9594 51.8919H61.2838C61.0783 51.8919 60.903 51.8194 60.758 51.6744C60.613 51.5294 60.5405 51.3542 60.5405 51.1487V50.473C60.5405 50.2675 60.613 50.0922 60.758 49.9472C60.903 49.8023 61.0783 49.7297 61.2838 49.7297H61.9594C62.165 49.7297 62.3403 49.8022 62.4852 49.9472C62.6302 50.0922 62.7027 50.2675 62.7027 50.473V51.1487Z" fill="#1A1A1A"/>
<path d="M67.027 49.7297H64.8649V51.8919H67.027V49.7297Z" fill="#1A1A1A"/>
<path d="M69.1892 49.7297H67.027V51.8919H69.1892V49.7297Z" fill="#1A1A1A"/>
<path d="M70.6081 49.7297H69.1892V51.8919H70.6081C70.8136 51.8919 70.9889 51.8194 71.1339 51.6744C71.2789 51.5294 71.3514 51.3542 71.3514 51.1487V50.473C71.3514 50.2675 71.2789 50.0922 71.1339 49.9472C70.9889 49.8023 70.8136 49.7297 70.6081 49.7297Z" fill="#1A1A1A"/>
<path d="M6.4865 51.8918H4.32434V54.054H6.4865V51.8918Z" fill="#1A1A1A"/>
<path d="M12.973 51.8918H10.8109V53.3108C10.8109 53.5163 10.8833 53.6915 11.0283 53.8365C11.1733 53.9815 11.3486 54.054 11.5541 54.054H12.973V51.8918Z" fill="#1A1A1A"/>
<path d="M15.1351 51.8918H12.973V54.054H15.1351V51.8918Z" fill="#1A1A1A"/>
<path d="M17.2973 51.8918H15.1351V54.054H17.2973V51.8918Z" fill="#1A1A1A"/>
<path d="M19.4595 51.8918H17.2973V54.054H19.4595V51.8918Z" fill="#1A1A1A"/>
<path d="M20.8784 51.8918H19.4595V54.054H20.8784C21.0839 54.054 21.2592 53.9815 21.4041 53.8365C21.5491 53.6915 21.6216 53.5163 21.6216 53.3108V52.6351C21.6216 52.4296 21.5491 52.2543 21.4041 52.1093C21.2592 51.9644 21.0839 51.8918 20.8784 51.8918Z" fill="#1A1A1A"/>
<path d="M30.2703 51.8918H28.1082V54.054H30.2703V51.8918Z" fill="#1A1A1A"/>
<path d="M32.4324 51.8918H30.2703V54.054H32.4324V51.8918Z" fill="#1A1A1A"/>
<path d="M34.5946 51.8918H32.4324V54.054H33.8514C34.0569 54.054 34.2321 53.9815 34.3771 53.8365C34.5221 53.6915 34.5946 53.5163 34.5946 53.3108V51.8918Z" fill="#1A1A1A"/>
<path d="M38.9189 51.8918H36.7568V53.3108C36.7568 53.5163 36.8293 53.6915 36.9743 53.8365C37.1193 53.9815 37.2945 54.054 37.5 54.054H38.9189V51.8918Z" fill="#1A1A1A"/>
<path d="M40.3379 51.8918H38.9189V54.054H40.3379C40.5434 54.054 40.7186 53.9815 40.8636 53.8365C41.0086 53.6915 41.0811 53.5163 41.0811 53.3108V52.6351C41.0811 52.4296 41.0086 52.2543 40.8636 52.1093C40.7186 51.9644 40.5434 51.8918 40.3379 51.8918Z" fill="#1A1A1A"/>
<path d="M45.4054 51.8918H43.2433V54.054H45.4054V51.8918Z" fill="#1A1A1A"/>
<path d="M46.8243 51.8918H45.4054V54.054H46.8243C47.0298 54.054 47.2051 53.9815 47.3501 53.8365C47.495 53.6915 47.5676 53.5163 47.5676 53.3108V52.6351C47.5676 52.4296 47.495 52.2543 47.3501 52.1093C47.2051 51.9644 47.0298 51.8918 46.8243 51.8918Z" fill="#1A1A1A"/>
<path d="M51.8877 52.5844H51.8919V51.8918H49.7297V52.5844H49.734C49.7311 52.6069 49.7297 52.6238 49.7297 52.6351V53.3108C49.7297 53.5163 49.8022 53.6915 49.9472 53.8365C50.0922 53.9815 50.2675 54.054 50.473 54.054H51.1487C51.3542 54.054 51.5294 53.9815 51.6744 53.8365C51.8194 53.6915 51.8919 53.5163 51.8919 53.3108V52.6351C51.8919 52.6238 51.8905 52.6069 51.8877 52.5844Z" fill="#1A1A1A"/>
<path d="M56.2162 52.6351V51.8918H54.7973C54.5918 51.8918 54.4165 51.9643 54.2716 52.1093C54.1266 52.2543 54.0541 52.4296 54.0541 52.6351V54.054H56.2162V52.6351Z" fill="#1A1A1A"/>
<path d="M57.6352 51.8918H56.2162V54.054H57.6352C57.8407 54.054 58.0159 53.9815 58.1609 53.8365C58.3059 53.6915 58.3784 53.5163 58.3784 53.3108V52.6351C58.3784 52.4296 58.3059 52.2543 58.1609 52.1093C58.0159 51.9644 57.8407 51.8918 57.6352 51.8918Z" fill="#1A1A1A"/>
<path d="M67.027 51.8918H64.8649V53.3108C64.8649 53.5163 64.9374 53.6915 65.0824 53.8365C65.2274 53.9815 65.4026 54.054 65.6081 54.054H67.027V51.8918Z" fill="#1A1A1A"/>
<path d="M69.1892 51.8918H67.027V54.054H69.1892V51.8918Z" fill="#1A1A1A"/>
<path d="M6.4865 54.0541H4.32434V56.2162H6.4865V54.0541Z" fill="#1A1A1A"/>
<path d="M25.946 54.7973C25.946 54.5918 25.8735 54.4165 25.7285 54.2716C25.5835 54.1266 25.4082 54.0541 25.2027 54.0541H24.5271C24.3215 54.0541 24.1463 54.1266 24.0013 54.2716C23.8563 54.4166 23.7838 54.5918 23.7838 54.7973V55.473C23.7838 55.4843 23.7852 55.5012 23.788 55.5237H23.7838V56.2162H25.946V55.5237H25.9418C25.9446 55.5012 25.946 55.4843 25.946 55.473V54.7973Z" fill="#1A1A1A"/>
<path d="M30.2703 54.0541H28.1082V56.2162H30.2703V54.0541Z" fill="#1A1A1A"/>
<path d="M32.4324 54.0541H30.2703V56.2162H32.4324V54.0541Z" fill="#1A1A1A"/>
<path d="M43.2433 54.7973V54.0541H41.8244C41.6188 54.0541 41.4436 54.1266 41.2986 54.2716C41.1536 54.4166 41.0811 54.5918 41.0811 54.7973V56.2162H43.2433V54.7973Z" fill="#1A1A1A"/>
<path d="M45.4054 54.0541H43.2433V56.2162H44.6622C44.8677 56.2162 45.043 56.1437 45.188 55.9987C45.3329 55.8538 45.4054 55.6785 45.4054 55.473V54.0541Z" fill="#1A1A1A"/>
<path d="M49.7297 54.7973C49.7297 54.5918 49.6572 54.4165 49.5122 54.2716C49.3673 54.1266 49.192 54.0541 48.9865 54.0541H48.3108C48.1053 54.0541 47.93 54.1266 47.7851 54.2716C47.6401 54.4166 47.5676 54.5918 47.5676 54.7973V55.473C47.5676 55.4843 47.569 55.5012 47.5718 55.5237H47.5676V56.2162H49.7297V55.5237H49.7255C49.7284 55.5012 49.7297 55.4843 49.7297 55.473V54.7973Z" fill="#1A1A1A"/>
<path d="M54.0541 54.7973V54.0541H52.6351C52.4296 54.0541 52.2544 54.1266 52.1094 54.2716C51.9644 54.4166 51.8919 54.5918 51.8919 54.7973V55.473C51.8919 55.6785 51.9644 55.8538 52.1094 55.9987C52.2544 56.1437 52.4296 56.2162 52.6351 56.2162H54.0541V54.7973Z" fill="#1A1A1A"/>
<path d="M56.2162 54.0541H54.0541V56.2162H55.473C55.6785 56.2162 55.8538 56.1437 55.9987 55.9987C56.1437 55.8538 56.2162 55.6785 56.2162 55.473V54.0541Z" fill="#1A1A1A"/>
<path d="M64.8649 54.7973C64.8649 54.5918 64.7923 54.4165 64.6474 54.2716C64.5024 54.1266 64.3271 54.0541 64.1216 54.0541H63.4459C63.2404 54.0541 63.0652 54.1266 62.9202 54.2716C62.7752 54.4166 62.7027 54.5918 62.7027 54.7973V55.473C62.7027 55.4843 62.7041 55.5012 62.7069 55.5237H62.7027V56.2162H64.8649V55.5237H64.8606C64.8635 55.5012 64.8649 55.4843 64.8649 55.473V54.7973Z" fill="#1A1A1A"/>
<path d="M69.1892 54.0541H67.027V55.473C67.027 55.6785 67.0995 55.8538 67.2445 55.9987C67.3895 56.1437 67.5648 56.2162 67.7703 56.2162H69.1892V54.0541Z" fill="#1A1A1A"/>
<path d="M71.3514 54.0541H69.1892V56.2162H71.3514V54.0541Z" fill="#1A1A1A"/>
<path d="M72.7703 54.0541H71.3514V56.2162H72.7703C72.9758 56.2162 73.1511 56.1437 73.296 55.9987C73.441 55.8538 73.5135 55.6785 73.5135 55.473V54.7973C73.5135 54.5918 73.441 54.4165 73.296 54.2716C73.1511 54.1266 72.9758 54.0541 72.7703 54.0541Z" fill="#1A1A1A"/>
<path d="M6.4865 56.2162H4.32434V57.6351C4.32434 57.8406 4.39684 58.0159 4.54183 58.1609C4.68683 58.3058 4.86207 58.3783 5.06758 58.3783H6.4865V56.2162Z" fill="#1A1A1A"/>
<path d="M8.64867 56.2162H6.48651V58.3783H8.64867V56.2162Z" fill="#1A1A1A"/>
<path d="M10.0676 56.2162H8.64868V58.3783H10.0676C10.2731 58.3783 10.4484 58.3058 10.5934 58.1609C10.7383 58.0159 10.8108 57.8406 10.8108 57.6351V56.9594C10.8108 56.7539 10.7383 56.5787 10.5934 56.4337C10.4484 56.2887 10.2731 56.2162 10.0676 56.2162Z" fill="#1A1A1A"/>
<path d="M15.1351 57.6351C15.1351 57.8407 15.0626 58.0159 14.9176 58.1609C14.7727 58.3058 14.5974 58.3783 14.3919 58.3783H13.7162C13.5107 58.3783 13.3354 58.3058 13.1905 58.1609C13.0455 58.0159 12.973 57.8407 12.973 57.6351V56.9594C12.973 56.7539 13.0455 56.5787 13.1905 56.4337C13.3355 56.2887 13.5107 56.2162 13.7162 56.2162H14.3919C14.5975 56.2162 14.7727 56.2887 14.9176 56.4337C15.0626 56.5787 15.1351 56.7539 15.1351 56.9594V57.6351Z" fill="#1A1A1A"/>
<path d="M19.4595 56.9594V56.2162H18.0405C17.835 56.2162 17.6598 56.2887 17.5148 56.4337C17.3698 56.5787 17.2973 56.7539 17.2973 56.9594V57.6351C17.2973 57.8406 17.3698 58.0159 17.5148 58.1609C17.6598 58.3058 17.835 58.3783 18.0405 58.3783H19.4595V56.9594Z" fill="#1A1A1A"/>
<path d="M20.8784 56.2162H19.4595V58.3783H20.8784C21.0839 58.3783 21.2592 58.3058 21.4041 58.1609C21.5491 58.0159 21.6216 57.8406 21.6216 57.6351V56.9594C21.6216 56.7539 21.5491 56.5787 21.4041 56.4337C21.2592 56.2887 21.0839 56.2162 20.8784 56.2162Z" fill="#1A1A1A"/>
<path d="M25.946 56.2162H23.7838V57.6351C23.7838 57.8406 23.8563 58.0159 24.0013 58.1609C24.1463 58.3058 24.3215 58.3783 24.5271 58.3783H25.946V56.2162Z" fill="#1A1A1A"/>
<path d="M28.1081 56.2162H25.946V58.3783H28.1081V56.2162Z" fill="#1A1A1A"/>
<path d="M30.2703 56.2162H28.1082V58.3783H30.2703V56.2162Z" fill="#1A1A1A"/>
<path d="M32.4324 56.2162H30.2703V58.3783H32.4324V56.2162Z" fill="#1A1A1A"/>
<path d="M36.7568 56.9594C36.7568 56.7539 36.6842 56.5787 36.5393 56.4337C36.3943 56.2887 36.219 56.2162 36.0135 56.2162H35.3378C35.1323 56.2162 34.9571 56.2887 34.8121 56.4337C34.6671 56.5787 34.5946 56.7539 34.5946 56.9594V57.6351C34.5946 57.6464 34.596 57.6633 34.5988 57.6858H34.5946V58.3783H36.7568V57.6858H36.7526C36.7554 57.6633 36.7568 57.6464 36.7568 57.6351V56.9594Z" fill="#1A1A1A"/>
<path d="M41.0811 56.9594V56.2162H39.6622C39.4567 56.2162 39.2814 56.2887 39.1364 56.4337C38.9915 56.5787 38.9189 56.7539 38.9189 56.9594V58.3783H41.0811V56.9594Z" fill="#1A1A1A"/>
<path d="M43.2433 56.2162H41.0811V58.3783H43.2433V56.2162Z" fill="#1A1A1A"/>
<path d="M47.5676 56.9594V56.2162H46.1486C45.9431 56.2162 45.7679 56.2887 45.6229 56.4337C45.4779 56.5787 45.4054 56.7539 45.4054 56.9594V57.6351C45.4054 57.8406 45.4779 58.0159 45.6229 58.1609C45.7679 58.3058 45.9431 58.3783 46.1486 58.3783H47.5676V56.9594Z" fill="#1A1A1A"/>
<path d="M49.7297 56.2162H47.5676V58.3783H48.9865C49.192 58.3783 49.3673 58.3058 49.5122 58.1609C49.6572 58.0159 49.7297 57.8406 49.7297 57.6351V56.2162Z" fill="#1A1A1A"/>
<path d="M58.3784 56.9594V56.2162H56.9595C56.754 56.2162 56.5787 56.2887 56.4337 56.4337C56.2888 56.5787 56.2162 56.7539 56.2162 56.9594V58.3783H58.3784V56.9594Z" fill="#1A1A1A"/>
<path d="M60.5406 56.2162H58.3784V58.3783H60.5406V56.2162Z" fill="#1A1A1A"/>
<path d="M62.7027 56.2162H60.5405V58.3783H62.7027V56.2162Z" fill="#1A1A1A"/>
<path d="M64.8649 56.2162H62.7027V58.3783H64.8649V56.2162Z" fill="#1A1A1A"/>
<path d="M67.027 56.9594C67.027 56.7539 66.9545 56.5787 66.8095 56.4337C66.6646 56.2887 66.4893 56.2162 66.2838 56.2162H64.8649V58.3783H67.027V56.9594Z" fill="#1A1A1A"/>
<path d="M23.7838 59.7973C23.7838 60.0029 23.7113 60.1781 23.5663 60.3231C23.4213 60.468 23.2461 60.5406 23.0406 60.5406H22.3649C22.1594 60.5406 21.9841 60.468 21.8392 60.3231C21.6942 60.1781 21.6216 60.0029 21.6216 59.7973V59.1217C21.6216 58.9162 21.6941 58.7409 21.8391 58.5959C21.9842 58.4509 22.1594 58.3784 22.3649 58.3784H23.0406C23.2461 58.3784 23.4214 58.4509 23.5663 58.5959C23.7113 58.7409 23.7838 58.9162 23.7838 59.1217V59.7973Z" fill="#1A1A1A"/>
<path d="M32.4282 59.071H32.4324V58.3784H30.2703V59.071H30.2745C30.2717 59.0935 30.2703 59.1104 30.2703 59.1217V59.7973C30.2703 60.0029 30.3428 60.1781 30.4878 60.3231C30.6328 60.4681 30.808 60.5406 31.0135 60.5406H31.6892C31.8947 60.5406 32.07 60.4681 32.2149 60.3231C32.3599 60.1781 32.4324 60.0029 32.4324 59.7973V59.1217C32.4324 59.1104 32.4311 59.0935 32.4282 59.071Z" fill="#1A1A1A"/>
<path d="M36.7568 58.3784H34.5946V60.5406H36.7568V58.3784Z" fill="#1A1A1A"/>
<path d="M38.9189 58.3784H36.7568V60.5406H38.9189V58.3784Z" fill="#1A1A1A"/>
<path d="M41.0811 58.3784H38.9189V60.5406H41.0811V58.3784Z" fill="#1A1A1A"/>
<path d="M43.2433 58.3784H41.0811V60.5406H43.2433V58.3784Z" fill="#1A1A1A"/>
<path d="M45.4054 59.1217C45.4054 58.9161 45.3329 58.7409 45.188 58.5959C45.043 58.4509 44.8677 58.3784 44.6622 58.3784H43.2433V60.5406H45.4054V59.1217Z" fill="#1A1A1A"/>
<path d="M56.2162 59.1217V58.3784H54.7973C54.5918 58.3784 54.4165 58.4509 54.2716 58.5959C54.1266 58.7409 54.0541 58.9161 54.0541 59.1217V60.5406H56.2162V59.1217Z" fill="#1A1A1A"/>
<path d="M58.3784 58.3784H56.2162V60.5406H58.3784V58.3784Z" fill="#1A1A1A"/>
<path d="M67.027 58.3784H64.8649V60.5406H67.027V58.3784Z" fill="#1A1A1A"/>
<path d="M71.3514 59.1217V58.3784H69.9325C69.7269 58.3784 69.5517 58.4509 69.4067 58.5959C69.2617 58.7409 69.1892 58.9161 69.1892 59.1217V60.5406H71.3514V59.1217Z" fill="#1A1A1A"/>
<path d="M73.5135 58.3784H71.3514V60.5406H73.5135V58.3784Z" fill="#1A1A1A"/>
<path d="M74.9325 58.3784H73.5135V60.5406H74.9325C75.138 60.5406 75.3132 60.4681 75.4582 60.3231C75.6032 60.1781 75.6757 60.0029 75.6757 59.7973V59.1217C75.6757 58.9161 75.6032 58.7409 75.4582 58.5959C75.3132 58.4509 75.138 58.3784 74.9325 58.3784Z" fill="#1A1A1A"/>
<path d="M36.7568 60.5405H34.5946V62.7027H36.7568V60.5405Z" fill="#1A1A1A"/>
<path d="M45.4012 61.2331H45.4054V60.5405H43.2433V61.2331H43.2475C43.2447 61.2556 43.2433 61.2725 43.2433 61.2838V61.9594C43.2433 62.165 43.3158 62.3402 43.4608 62.4852C43.6058 62.6302 43.781 62.7027 43.9865 62.7027H44.6622C44.8677 62.7027 45.043 62.6302 45.188 62.4852C45.3329 62.3402 45.4054 62.165 45.4054 61.9594V61.2838C45.4054 61.2725 45.4041 61.2556 45.4012 61.2331Z" fill="#1A1A1A"/>
<path d="M49.7297 61.2838V60.5405H48.3108C48.1053 60.5405 47.93 60.613 47.7851 60.758C47.6401 60.903 47.5676 61.0783 47.5676 61.2838V61.9594C47.5676 62.165 47.6401 62.3402 47.7851 62.4852C47.9301 62.6302 48.1053 62.7027 48.3108 62.7027H49.7297V61.2838Z" fill="#1A1A1A"/>
<path d="M51.1487 60.5405H49.7297V62.7027H51.1487C51.3542 62.7027 51.5294 62.6302 51.6744 62.4852C51.8194 62.3402 51.8919 62.165 51.8919 61.9594V61.2838C51.8919 61.0783 51.8194 60.903 51.6744 60.758C51.5294 60.613 51.3542 60.5405 51.1487 60.5405Z" fill="#1A1A1A"/>
<path d="M56.2162 60.5405H54.0541V62.7027H56.2162V60.5405Z" fill="#1A1A1A"/>
<path d="M58.3784 60.5405H56.2162V62.7027H58.3784V60.5405Z" fill="#1A1A1A"/>
<path d="M62.7027 61.9594C62.7027 62.165 62.6301 62.3402 62.4852 62.4852C62.3402 62.6301 62.165 62.7027 61.9594 62.7027H61.2838C61.0783 62.7027 60.903 62.6301 60.758 62.4852C60.613 62.3402 60.5405 62.165 60.5405 61.9594V61.2838C60.5405 61.0783 60.613 60.903 60.758 60.758C60.903 60.613 61.0783 60.5405 61.2838 60.5405H61.9594C62.165 60.5405 62.3403 60.613 62.4852 60.758C62.6302 60.903 62.7027 61.0783 62.7027 61.2838V61.9594Z" fill="#1A1A1A"/>
<path d="M67.027 60.5405H64.8649V62.7027H67.027V60.5405Z" fill="#1A1A1A"/>
<path d="M71.3514 60.5405H69.1892V62.7027H71.3514V60.5405Z" fill="#1A1A1A"/>
<path d="M73.5135 60.5405H71.3514V62.7027H73.5135V60.5405Z" fill="#1A1A1A"/>
<path d="M23.7838 64.1217C23.7838 64.3272 23.7113 64.5025 23.5663 64.6474C23.4213 64.7924 23.2461 64.8649 23.0406 64.8649H22.3649C22.1594 64.8649 21.9841 64.7924 21.8392 64.6474C21.6942 64.5025 21.6216 64.3272 21.6216 64.1217V63.446C21.6216 63.2405 21.6941 63.0652 21.8391 62.9203C21.9842 62.7753 22.1594 62.7028 22.3649 62.7028H23.0406C23.2461 62.7028 23.4214 62.7753 23.5663 62.9203C23.7113 63.0653 23.7838 63.2405 23.7838 63.446V64.1217Z" fill="#1A1A1A"/>
<path d="M28.1081 64.1217C28.1081 64.3272 28.0356 64.5025 27.8907 64.6474C27.7457 64.7924 27.5705 64.8649 27.3649 64.8649H26.6892C26.4837 64.8649 26.3085 64.7924 26.1635 64.6474C26.0185 64.5025 25.946 64.3272 25.946 64.1217V63.446C25.946 63.2405 26.0185 63.0652 26.1635 62.9203C26.3085 62.7753 26.4837 62.7028 26.6892 62.7028H27.3649C27.5705 62.7028 27.7457 62.7753 27.8907 62.9203C28.0356 63.0653 28.1081 63.2405 28.1081 63.446V64.1217Z" fill="#1A1A1A"/>
<path d="M32.4324 64.1217C32.4324 64.3272 32.3599 64.5025 32.2149 64.6474C32.07 64.7924 31.8947 64.8649 31.6892 64.8649H31.0135C30.808 64.8649 30.6328 64.7924 30.4878 64.6474C30.3428 64.5025 30.2703 64.3272 30.2703 64.1217V63.446C30.2703 63.2405 30.3428 63.0652 30.4878 62.9203C30.6328 62.7753 30.808 62.7028 31.0135 62.7028H31.6892C31.8948 62.7028 32.07 62.7753 32.2149 62.9203C32.3599 63.0653 32.4324 63.2405 32.4324 63.446V64.1217Z" fill="#1A1A1A"/>
<path d="M36.7568 62.7028H34.5946V64.1217C34.5946 64.3272 34.6671 64.5025 34.8121 64.6474C34.9571 64.7924 35.1323 64.8649 35.3378 64.8649H36.7568V62.7028Z" fill="#1A1A1A"/>
<path d="M38.1757 62.7028H36.7568V64.8649H38.1757C38.3812 64.8649 38.5565 64.7924 38.7014 64.6474C38.8464 64.5025 38.9189 64.3272 38.9189 64.1217V63.446C38.9189 63.2405 38.8464 63.0652 38.7014 62.9203C38.5565 62.7753 38.3812 62.7028 38.1757 62.7028Z" fill="#1A1A1A"/>
<path d="M56.2162 62.7028H54.0541V64.1217C54.0541 64.3272 54.1266 64.5025 54.2716 64.6474C54.4166 64.7924 54.5918 64.8649 54.7973 64.8649H56.2162V62.7028Z" fill="#1A1A1A"/>
<path d="M58.3784 62.7028H56.2162V64.8649H58.3784V62.7028Z" fill="#1A1A1A"/>
<path d="M67.027 62.7028H64.8649V64.8649H67.027V62.7028Z" fill="#1A1A1A"/>
<path d="M69.1892 62.7028H67.027V64.8649H69.1892V62.7028Z" fill="#1A1A1A"/>
<path d="M71.3514 62.7028H69.1892V64.8649H71.3514V62.7028Z" fill="#1A1A1A"/>
<path d="M73.5135 62.7028H71.3514V64.8649H73.5135V62.7028Z" fill="#1A1A1A"/>
<path d="M34.5946 65.6081C34.5946 65.4026 34.5221 65.2273 34.3771 65.0824C34.2321 64.9374 34.0569 64.8649 33.8514 64.8649H33.1757C32.9702 64.8649 32.7949 64.9374 32.6499 65.0824C32.505 65.2274 32.4324 65.4026 32.4324 65.6081V66.2838C32.4324 66.2951 32.4338 66.312 32.4367 66.3345H32.4324V67.027H34.5946V66.3345H34.5904C34.5932 66.312 34.5946 66.2951 34.5946 66.2838V65.6081Z" fill="#1A1A1A"/>
<path d="M41.0811 65.6081V64.8649H39.6622C39.4567 64.8649 39.2814 64.9374 39.1364 65.0824C38.9915 65.2274 38.9189 65.4026 38.9189 65.6081V67.027H41.0811V65.6081Z" fill="#1A1A1A"/>
<path d="M43.2433 65.6081C43.2433 65.4026 43.1708 65.2273 43.0258 65.0824C42.8808 64.9374 42.7055 64.8649 42.5 64.8649H41.0811V67.027H43.2433V65.6081Z" fill="#1A1A1A"/>
<path d="M51.8919 65.6081C51.8919 65.4026 51.8194 65.2273 51.6744 65.0824C51.5294 64.9374 51.3542 64.8649 51.1487 64.8649H50.473C50.2675 64.8649 50.0922 64.9374 49.9472 65.0824C49.8023 65.2274 49.7297 65.4026 49.7297 65.6081V66.2838C49.7297 66.2951 49.7311 66.312 49.734 66.3345H49.7297V67.027H51.8919V66.3345H51.8877C51.8905 66.312 51.8919 66.2951 51.8919 66.2838V65.6081Z" fill="#1A1A1A"/>
<path d="M58.3784 64.8649H56.2162V67.027H58.3784V64.8649Z" fill="#1A1A1A"/>
<path d="M60.5406 64.8649H58.3784V67.027H60.5406V64.8649Z" fill="#1A1A1A"/>
<path d="M62.7027 64.8649H60.5405V67.027H62.7027V64.8649Z" fill="#1A1A1A"/>
<path d="M64.8649 64.8649H62.7027V67.027H64.8649V64.8649Z" fill="#1A1A1A"/>
<path d="M67.027 64.8649H64.8649V67.027H67.027V64.8649Z" fill="#1A1A1A"/>
<path d="M73.5135 64.8649H71.3514V67.027H73.5135V64.8649Z" fill="#1A1A1A"/>
<path d="M74.9325 64.8649H73.5135V67.027H74.9325C75.138 67.027 75.3132 66.9545 75.4582 66.8095C75.6032 66.6646 75.6757 66.4893 75.6757 66.2838V65.6081C75.6757 65.4026 75.6032 65.2273 75.4582 65.0824C75.3132 64.9374 75.138 64.8649 74.9325 64.8649Z" fill="#1A1A1A"/>
<path d="M28.1081 68.446C28.1081 68.6516 28.0356 68.8268 27.8907 68.9718C27.7457 69.1167 27.5705 69.1893 27.3649 69.1893H26.6892C26.4837 69.1893 26.3085 69.1167 26.1635 68.9718C26.0185 68.8268 25.946 68.6516 25.946 68.446V67.7703C25.946 67.5649 26.0185 67.3896 26.1635 67.2446C26.3085 67.0996 26.4837 67.0271 26.6892 67.0271H27.3649C27.5705 67.0271 27.7457 67.0996 27.8907 67.2446C28.0356 67.3896 28.1081 67.5649 28.1081 67.7703V68.446Z" fill="#1A1A1A"/>
<path d="M32.4324 67.7703V67.0271H31.0135C30.808 67.0271 30.6327 67.0996 30.4878 67.2446C30.3428 67.3896 30.2703 67.5648 30.2703 67.7703V68.446C30.2703 68.6515 30.3428 68.8268 30.4878 68.9718C30.6328 69.1167 30.808 69.1893 31.0135 69.1893H32.4324V67.7703Z" fill="#1A1A1A"/>
<path d="M34.5946 67.0271H32.4324V69.1893H33.8514C34.0569 69.1893 34.2321 69.1167 34.3771 68.9718C34.5221 68.8268 34.5946 68.6515 34.5946 68.446V67.0271Z" fill="#1A1A1A"/>
<path d="M38.9189 67.7703V67.0271H37.5C37.2945 67.0271 37.1192 67.0996 36.9743 67.2446C36.8293 67.3896 36.7568 67.5648 36.7568 67.7703V68.446C36.7568 68.6515 36.8293 68.8268 36.9743 68.9718C37.1193 69.1167 37.2945 69.1893 37.5 69.1893H38.9189V67.7703Z" fill="#1A1A1A"/>
<path d="M41.0811 67.0271H38.9189V69.1893H41.0811V67.0271Z" fill="#1A1A1A"/>
<path d="M43.2433 67.0271H41.0811V69.1893H43.2433V67.0271Z" fill="#1A1A1A"/>
<path d="M44.6622 67.0271H43.2433V69.1893H44.6622C44.8677 69.1893 45.043 69.1167 45.188 68.9718C45.3329 68.8268 45.4054 68.6515 45.4054 68.446V67.7703C45.4054 67.5648 45.3329 67.3896 45.188 67.2446C45.043 67.0996 44.8677 67.0271 44.6622 67.0271Z" fill="#1A1A1A"/>
<path d="M49.7297 67.7703V67.0271H48.3108C48.1053 67.0271 47.93 67.0996 47.7851 67.2446C47.6401 67.3896 47.5676 67.5648 47.5676 67.7703V68.446C47.5676 68.6515 47.6401 68.8268 47.7851 68.9718C47.9301 69.1167 48.1053 69.1893 48.3108 69.1893H49.7297V67.7703Z" fill="#1A1A1A"/>
<path d="M51.8919 67.0271H49.7297V69.1893H51.8919V67.0271Z" fill="#1A1A1A"/>
<path d="M54.0541 67.0271H51.8919V69.1893H54.0541V67.0271Z" fill="#1A1A1A"/>
<path d="M56.2162 67.0271H54.0541V69.1893H56.2162V67.0271Z" fill="#1A1A1A"/>
<path d="M58.3784 67.0271H56.2162V69.1893H58.3784V67.0271Z" fill="#1A1A1A"/>
<path d="M60.5406 67.0271H58.3784V69.1893H59.7973C60.0029 69.1893 60.1781 69.1167 60.3231 68.9718C60.4681 68.8268 60.5406 68.6515 60.5406 68.446V67.0271Z" fill="#1A1A1A"/>
<path d="M64.8649 67.0271H62.7027V68.446C62.7027 68.6515 62.7752 68.8268 62.9202 68.9718C63.0652 69.1167 63.2404 69.1893 63.4459 69.1893H64.8649V67.0271Z" fill="#1A1A1A"/>
<path d="M67.027 67.0271H64.8649V69.1893H67.027V67.0271Z" fill="#1A1A1A"/>
<path d="M71.3514 67.7703V67.0271H69.9325C69.7269 67.0271 69.5517 67.0996 69.4067 67.2446C69.2617 67.3896 69.1892 67.5648 69.1892 67.7703V68.446C69.1892 68.6515 69.2617 68.8268 69.4067 68.9718C69.5517 69.1167 69.7269 69.1893 69.9325 69.1893H71.3514V67.7703Z" fill="#1A1A1A"/>
<path d="M73.5135 67.0271H71.3514V69.1893H73.5135V67.0271Z" fill="#1A1A1A"/>
<path d="M47.5676 69.9325C47.5676 69.7269 47.495 69.5517 47.3501 69.4067C47.2051 69.2617 47.0298 69.1892 46.8243 69.1892H46.1486C45.9431 69.1892 45.7679 69.2617 45.6229 69.4067C45.4779 69.5517 45.4054 69.7269 45.4054 69.9325V70.6081C45.4054 70.6194 45.4068 70.6363 45.4096 70.6588H45.4054V71.3514H47.5676V70.6588H47.5633C47.5662 70.6363 47.5676 70.6194 47.5676 70.6081V69.9325Z" fill="#1A1A1A"/>
<path d="M51.8919 69.1892H49.7297V70.6081C49.7297 70.8136 49.8022 70.9889 49.9472 71.1339C50.0922 71.2789 50.2675 71.3514 50.473 71.3514H51.8919V69.1892Z" fill="#1A1A1A"/>
<path d="M54.0541 69.1892H51.8919V71.3514H54.0541V69.1892Z" fill="#1A1A1A"/>
<path d="M56.2162 69.1892H54.0541V71.3514H56.2162V69.1892Z" fill="#1A1A1A"/>
<path d="M58.3784 69.1892H56.2162V71.3514H57.6352C57.8407 71.3514 58.0159 71.2789 58.1609 71.1339C58.3059 70.9889 58.3784 70.8136 58.3784 70.6081V69.1892Z" fill="#1A1A1A"/>
<path d="M67.0228 69.8818H67.027V69.1892H64.8649V69.8818H64.8691C64.8663 69.9043 64.8649 69.9212 64.8649 69.9325V70.6081C64.8649 70.8136 64.9374 70.9889 65.0824 71.1339C65.2274 71.2789 65.4026 71.3514 65.6081 71.3514H66.2838C66.4893 71.3514 66.6646 71.2789 66.8095 71.1339C66.9545 70.9889 67.027 70.8136 67.027 70.6081V69.9325C67.027 69.9212 67.0257 69.9043 67.0228 69.8818Z" fill="#1A1A1A"/>
<path d="M73.5135 69.1892H71.3514V70.6081C71.3514 70.8136 71.4239 70.9889 71.5689 71.1339C71.7139 71.2789 71.8891 71.3514 72.0946 71.3514H73.5135V69.1892Z" fill="#1A1A1A"/>
<path d="M74.9325 69.1892H73.5135V71.3514H74.9325C75.138 71.3514 75.3132 71.2789 75.4582 71.1339C75.6032 70.9889 75.6757 70.8136 75.6757 70.6081V69.9325C75.6757 69.7269 75.6032 69.5517 75.4582 69.4067C75.3132 69.2617 75.138 69.1892 74.9325 69.1892Z" fill="#1A1A1A"/>
<path d="M25.946 72.0946V71.3513H24.5271C24.3215 71.3513 24.1463 71.4238 24.0013 71.5688C23.8563 71.7138 23.7838 71.889 23.7838 72.0946V72.7702C23.7838 72.9758 23.8563 73.151 24.0013 73.296C24.1463 73.441 24.3215 73.5135 24.5271 73.5135H25.946V72.0946Z" fill="#1A1A1A"/>
<path d="M27.3649 71.3513H25.946V73.5135H27.3649C27.5704 73.5135 27.7457 73.441 27.8907 73.296C28.0356 73.151 28.1081 72.9758 28.1081 72.7702V72.0946C28.1081 71.889 28.0356 71.7138 27.8907 71.5688C27.7457 71.4238 27.5704 71.3513 27.3649 71.3513Z" fill="#1A1A1A"/>
<path d="M32.4324 72.0946C32.4324 71.889 32.3599 71.7138 32.2149 71.5688C32.07 71.4238 31.8947 71.3513 31.6892 71.3513H31.0135C30.808 71.3513 30.6327 71.4238 30.4878 71.5688C30.3428 71.7138 30.2703 71.889 30.2703 72.0946V72.7702C30.2703 72.7815 30.2717 72.7984 30.2745 72.8209H30.2703V73.5135H32.4324V72.8209H32.4282C32.4311 72.7984 32.4324 72.7815 32.4324 72.7702V72.0946Z" fill="#1A1A1A"/>
<path d="M41.0811 72.0946V71.3513H39.6622C39.4567 71.3513 39.2814 71.4238 39.1364 71.5688C38.9915 71.7138 38.9189 71.889 38.9189 72.0946V73.5135H41.0811V72.0946Z" fill="#1A1A1A"/>
<path d="M43.2433 72.0946C43.2433 71.889 43.1708 71.7138 43.0258 71.5688C42.8808 71.4238 42.7055 71.3513 42.5 71.3513H41.0811V73.5135H43.2433V72.0946Z" fill="#1A1A1A"/>
<path d="M47.5633 72.0439H47.5676V71.3513H45.4054V72.0439H45.4096C45.4068 72.0664 45.4054 72.0833 45.4054 72.0946V72.7702C45.4054 72.9758 45.4779 73.151 45.6229 73.296C45.7679 73.441 45.9431 73.5135 46.1486 73.5135H46.8243C47.0298 73.5135 47.2051 73.441 47.3501 73.296C47.495 73.151 47.5676 72.9758 47.5676 72.7702V72.0946C47.5676 72.0833 47.5662 72.0664 47.5633 72.0439Z" fill="#1A1A1A"/>
<path d="M62.7027 72.7702C62.7027 72.9758 62.6301 73.151 62.4852 73.296C62.3402 73.4409 62.165 73.5135 61.9594 73.5135H61.2838C61.0783 73.5135 60.903 73.4409 60.758 73.296C60.613 73.151 60.5405 72.9758 60.5405 72.7702V72.0946C60.5405 71.8891 60.613 71.7138 60.758 71.5688C60.903 71.4238 61.0783 71.3513 61.2838 71.3513H61.9594C62.165 71.3513 62.3403 71.4238 62.4852 71.5688C62.6302 71.7138 62.7027 71.8891 62.7027 72.0946V72.7702Z" fill="#1A1A1A"/>
<path d="M69.1892 72.0946V71.3513H67.7703C67.5648 71.3513 67.3895 71.4238 67.2445 71.5688C67.0996 71.7138 67.027 71.889 67.027 72.0946V72.7702C67.027 72.9758 67.0995 73.151 67.2445 73.296C67.3895 73.441 67.5648 73.5135 67.7703 73.5135H69.1892V72.0946Z" fill="#1A1A1A"/>
<path d="M70.6081 71.3513H69.1892V73.5135H70.6081C70.8136 73.5135 70.9889 73.441 71.1339 73.296C71.2789 73.151 71.3514 72.9758 71.3514 72.7702V72.0946C71.3514 71.889 71.2789 71.7138 71.1339 71.5688C70.9889 71.4238 70.8136 71.3513 70.6081 71.3513Z" fill="#1A1A1A"/>
<path d="M32.4324 73.5135H30.2703V74.9325C30.2703 75.138 30.3428 75.3132 30.4878 75.4582C30.6328 75.6032 30.808 75.6757 31.0135 75.6757H32.4324V73.5135Z" fill="#1A1A1A"/>
<path d="M33.8514 73.5135H32.4324V75.6757H33.8514C34.0569 75.6757 34.2321 75.6032 34.3771 75.4582C34.5221 75.3132 34.5946 75.138 34.5946 74.9325V74.2568C34.5946 74.0513 34.5221 73.876 34.3771 73.731C34.2321 73.5861 34.0569 73.5135 33.8514 73.5135Z" fill="#1A1A1A"/>
<path d="M41.0811 73.5135H38.9189V74.9325C38.9189 75.138 38.9914 75.3132 39.1364 75.4582C39.2814 75.6032 39.4567 75.6757 39.6622 75.6757H41.0811V73.5135Z" fill="#1A1A1A"/>
<path d="M43.2433 73.5135H41.0811V75.6757H42.5C42.7055 75.6757 42.8808 75.6032 43.0258 75.4582C43.1708 75.3132 43.2433 75.138 43.2433 74.9325V73.5135Z" fill="#1A1A1A"/>
<path d="M51.8919 74.9325C51.8919 75.138 51.8194 75.3132 51.6744 75.4582C51.5294 75.6032 51.3542 75.6757 51.1487 75.6757H50.473C50.2675 75.6757 50.0922 75.6032 49.9472 75.4582C49.8023 75.3132 49.7297 75.138 49.7297 74.9325V74.2568C49.7297 74.0513 49.8022 73.876 49.9472 73.7311C50.0922 73.5861 50.2675 73.5135 50.473 73.5135H51.1487C51.3542 73.5135 51.5295 73.586 51.6744 73.731C51.8194 73.8761 51.8919 74.0513 51.8919 74.2568V74.9325Z" fill="#1A1A1A"/>
<path d="M58.3784 74.9325C58.3784 75.138 58.3059 75.3132 58.1609 75.4582C58.0159 75.6032 57.8407 75.6757 57.6352 75.6757H56.9595C56.754 75.6757 56.5787 75.6032 56.4338 75.4582C56.2888 75.3132 56.2162 75.138 56.2162 74.9325V74.2568C56.2162 74.0513 56.2887 73.876 56.4337 73.7311C56.5788 73.5861 56.754 73.5135 56.9595 73.5135H57.6352C57.8407 73.5135 58.016 73.586 58.1609 73.731C58.3059 73.8761 58.3784 74.0513 58.3784 74.2568V74.9325Z" fill="#1A1A1A"/>
<path d="M73.5135 74.9325C73.5135 75.138 73.441 75.3132 73.296 75.4582C73.1511 75.6032 72.9759 75.6757 72.7703 75.6757H72.0946C71.8891 75.6757 71.7139 75.6032 71.5689 75.4582C71.4239 75.3132 71.3514 75.138 71.3514 74.9325V74.2568C71.3514 74.0513 71.4239 73.876 71.5689 73.7311C71.7139 73.5861 71.8891 73.5135 72.0946 73.5135H72.7703C72.9759 73.5135 73.1511 73.586 73.296 73.731C73.441 73.8761 73.5135 74.0513 73.5135 74.2568V74.9325Z" fill="#1A1A1A"/>
<path d="M14.2922 4.32556H9.49163C7.15204 4.32556 5.16994 5.87131 4.53623 7.98403C4.4707 8.20258 4.41954 8.42718 4.38397 8.65678C4.34477 8.91015 4.32434 9.16956 4.32434 9.43367V14.3482C4.32434 17.1662 6.64304 19.4578 9.49163 19.4578L11.8919 19.4583L14.2922 19.4577C17.1406 19.4577 19.4595 17.1661 19.4595 14.348V9.43367C19.4595 6.61702 17.1408 4.32556 14.2922 4.32556ZM17.1892 14.3482C17.1892 15.9138 15.8897 17.1875 14.2916 17.1875L11.8919 17.188L9.49223 17.1874C7.89411 17.1874 6.59461 15.9136 6.59461 14.3482V9.43367C6.59461 8.94465 6.72144 8.48424 6.94469 8.08195C7.15961 7.69495 7.46367 7.36212 7.82979 7.11012C8.30049 6.78608 8.87366 6.59583 9.49148 6.59583H14.2922C15.8897 6.59583 17.1892 7.86885 17.1892 9.43367V14.3482Z" fill="#1A1A1A"/>
<path d="M70.5084 4.32556H65.7078C63.3682 4.32556 61.3861 5.87131 60.7524 7.98403C60.6869 8.20258 60.6357 8.42718 60.6002 8.65678C60.561 8.91015 60.5405 9.16956 60.5405 9.43367V14.3482C60.5405 17.1662 62.8592 19.4578 65.7078 19.4578L68.1081 19.4583L70.5084 19.4577C73.3568 19.4577 75.6757 17.1661 75.6757 14.348V9.43367C75.6757 6.61702 73.357 4.32556 70.5084 4.32556ZM73.4054 14.3482C73.4054 15.9138 72.1059 17.1875 70.5078 17.1875L68.1081 17.188L65.7084 17.1874C64.1103 17.1874 62.8108 15.9136 62.8108 14.3482V9.43367C62.8108 8.94465 62.9376 8.48424 63.1609 8.08195C63.3758 7.69495 63.6799 7.36212 64.046 7.11012C64.5167 6.78608 65.0898 6.59583 65.7077 6.59583H70.5084C72.1059 6.59583 73.4054 7.86885 73.4054 9.43367V14.3482Z" fill="#1A1A1A"/>
<path d="M14.2922 60.5417H9.49163C7.15204 60.5417 5.16994 62.0875 4.53623 64.2002C4.4707 64.4188 4.41954 64.6434 4.38397 64.873C4.34477 65.1263 4.32434 65.3857 4.32434 65.6499V70.5644C4.32434 73.3824 6.64304 75.674 9.49163 75.674L11.8919 75.6745L14.2922 75.6739C17.1406 75.6739 19.4595 73.3822 19.4595 70.5642V65.6499C19.4595 62.8332 17.1408 60.5417 14.2922 60.5417ZM17.1892 70.5644C17.1892 72.13 15.8897 73.4037 14.2916 73.4037L11.8919 73.4042L9.49223 73.4036C7.89411 73.4036 6.59461 72.1298 6.59461 70.5644V65.6499C6.59461 65.1608 6.72144 64.7004 6.94469 64.2981C7.15961 63.9111 7.46367 63.5783 7.82979 63.3263C8.30049 63.0023 8.87366 62.812 9.49148 62.812H14.2922C15.8897 62.812 17.1892 64.085 17.1892 65.6499V70.5644Z" fill="#1A1A1A"/>
<path d="M10.4228 15.1352C9.44398 15.1352 8.64777 14.3547 8.64777 13.3963V10.3867C8.64777 10.0873 8.7256 9.80548 8.86189 9.55893C8.9935 9.32165 9.17979 9.11772 9.40416 8.96386C9.69235 8.7655 10.0437 8.64868 10.4218 8.64868H13.3619C14.3399 8.64868 15.1361 9.42823 15.1361 10.3866V13.3962C15.1361 14.3546 14.3399 15.1351 13.3619 15.1351H11.8919L10.4228 15.1352Z" fill="#1A1A1A"/>
<path d="M66.639 15.1352C65.6602 15.1352 64.864 14.3547 64.864 13.3963V10.3867C64.864 10.0873 64.9418 9.80548 65.0781 9.55893C65.2097 9.32165 65.396 9.11772 65.6203 8.96386C65.9085 8.7655 66.2598 8.64868 66.638 8.64868H69.5781C70.556 8.64868 71.3523 9.42823 71.3523 10.3866V13.3962C71.3523 14.3546 70.5561 15.1351 69.5781 15.1351H68.1081L66.639 15.1352Z" fill="#1A1A1A"/>
<path d="M10.4228 71.3514C9.44398 71.3514 8.64777 70.5709 8.64777 69.6125V66.6029C8.64777 66.3034 8.7256 66.0217 8.86189 65.7751C8.9935 65.5378 9.17979 65.3339 9.40416 65.18C9.69235 64.9817 10.0437 64.8649 10.4218 64.8649H13.3619C14.3399 64.8649 15.1361 65.6444 15.1361 66.6028V69.6124C15.1361 70.5708 14.3399 71.3513 13.3619 71.3513H11.8919L10.4228 71.3514Z" fill="#1A1A1A"/>
<g clip-path="url(#clip1_4469_92010)">
<path fill-rule="evenodd" clip-rule="evenodd" d="M33.3993 39.4539H31.3008C30.9948 39.4539 30.7435 39.709 30.7435 40.0198C30.7435 40.3309 30.9948 40.5861 31.3008 40.5861H33.3993C33.7052 40.5861 33.9565 40.3309 33.9565 40.0198C33.9565 39.709 33.7106 39.4539 33.3993 39.4539Z" fill="black"/>
<path fill-rule="evenodd" clip-rule="evenodd" d="M38.6525 40.0128L40.505 37.6997C40.696 37.4699 40.6579 37.1035 40.4283 36.9065C40.33 36.8298 40.199 36.7916 40.0841 36.7916C39.9093 36.7916 39.7563 36.8683 39.6578 37.0049L37.6908 39.4551H36.2649V37.355C36.2649 37.0488 36.0133 36.797 35.7074 36.797C35.4014 36.797 35.1499 37.0488 35.1499 37.355V42.6597C35.1499 42.9659 35.4014 43.2176 35.7074 43.2176C36.0133 43.2176 36.2649 42.9659 36.2649 42.6597V40.5761H37.6689L39.6361 43.0044C39.7344 43.1409 39.9039 43.2176 40.0622 43.2176C40.199 43.2176 40.3135 43.1791 40.4064 43.1027C40.5212 43.0044 40.5978 42.8729 40.6197 42.7364C40.6414 42.5833 40.5978 42.4464 40.505 42.3315L38.6525 40.0128Z" fill="black"/>
<path fill-rule="evenodd" clip-rule="evenodd" d="M42.549 39.1902C42.549 38.3395 43.1677 37.8949 43.7868 37.8949H44.9645C45.5836 37.8949 46.2024 38.3395 46.2024 39.1902V40.8365C46.2024 41.6871 45.5836 42.1318 44.9645 42.1318H43.7868C43.1677 42.1318 42.549 41.6871 42.549 40.8365V39.1902ZM44.9645 36.7916H43.7868C43.0912 36.7916 42.4941 37.0606 42.0504 37.5656C41.6614 38.0102 41.4536 38.6085 41.4536 39.2122V40.8585C41.4536 41.4568 41.6671 42.0605 42.0504 42.5049C42.4941 43.0099 43.0912 43.2788 43.7868 43.2788H44.9645C45.6601 43.2788 46.2573 43.0099 46.7011 42.5049C47.0899 42.0605 47.2981 41.4623 47.2981 40.8585V39.2122C47.2981 38.6139 47.0842 38.0102 46.7011 37.5656C46.2573 37.0606 45.6438 36.7916 44.9645 36.7916Z" fill="black"/>
<path fill-rule="evenodd" clip-rule="evenodd" d="M57.0083 37.5646C56.5643 37.0602 55.9668 36.7916 55.2707 36.7916H54.805C54.1089 36.7916 53.5114 37.0602 53.0674 37.5646C53.0454 37.5866 53.0291 37.6028 53.0071 37.6248C52.9854 37.6028 52.9688 37.5866 52.9468 37.5646C52.5028 37.0602 51.9056 36.7916 51.2092 36.7916H50.7654C50.0694 36.7916 49.4719 37.0602 49.0278 37.5646C48.6387 38.0086 48.4303 38.6058 48.4303 39.2087V42.6893C48.4303 42.9962 48.6826 43.2482 48.9895 43.2482C49.2964 43.2482 49.5484 42.9962 49.5484 42.6893V39.2087C49.5484 38.3592 50.168 37.9155 50.7874 37.9155H51.2531C51.8727 37.9155 52.4919 38.3592 52.4919 39.2087V42.6893C52.4919 42.9962 52.7439 43.2482 53.051 43.2482C53.3579 43.2482 53.6101 42.9962 53.6101 42.6893V39.2087C53.6101 38.3592 54.2295 37.9155 54.8487 37.9155H55.3148C55.934 37.9155 56.5534 38.3592 56.5534 39.2087V42.6893C56.5534 42.9962 56.8054 43.2482 57.1123 43.2482C57.4196 43.2482 57.6716 42.9962 57.6716 42.6893V39.2087C57.6275 38.5895 57.3975 37.992 57.0083 37.5646Z" fill="black"/>
<path fill-rule="evenodd" clip-rule="evenodd" d="M26.5469 40.585L22.5744 36.6126C22.2465 36.2847 22.2465 35.7657 22.5744 35.4378L22.596 35.4158C22.9239 35.088 23.4432 35.088 23.7708 35.4158L27.7436 39.3883C28.0715 39.7162 28.0715 40.2352 27.7436 40.5631L27.7217 40.585C27.3938 40.9129 26.8747 40.9129 26.5469 40.585Z" fill="#0FD2FF"/>
<path fill-rule="evenodd" clip-rule="evenodd" d="M30.5249 44.5629L26.5524 40.5905C26.2245 40.2626 26.2245 39.7436 26.5524 39.4157L26.5744 39.3937C26.9022 39.0659 27.4213 39.0659 27.7492 39.3937L31.7216 43.3665C32.0495 43.6941 32.0495 44.2131 31.7216 44.541L31.6997 44.5629C31.3718 44.8908 30.8528 44.8908 30.5249 44.5629Z" fill="#C382FA"/>
<path fill-rule="evenodd" clip-rule="evenodd" d="M26.5767 40.6154L24.0128 38.0514C23.6847 37.7234 23.6847 37.2041 24.0128 36.876L24.0344 36.8541C24.3625 36.526 24.8821 36.526 25.2098 36.8541L27.7741 39.418C28.1021 39.7461 28.1021 40.2654 27.7741 40.5934L27.7521 40.6154C27.4241 40.9434 26.9048 40.9434 26.5767 40.6154Z" fill="#0082FA"/>
<path fill-rule="evenodd" clip-rule="evenodd" d="M28.9778 43.0203L26.5539 40.598C26.2241 40.2684 26.2241 39.7467 26.5539 39.4171L26.576 39.395C26.9058 39.0654 27.4279 39.0654 27.7577 39.395L30.1596 41.7952C30.4894 42.1248 30.4894 42.6469 30.1596 42.9761L30.1375 42.9982C29.8134 43.3278 29.2856 43.3278 28.9778 43.0203Z" fill="#8250FA"/>
<path fill-rule="evenodd" clip-rule="evenodd" d="M30.5275 35.4468L22.6055 43.3635C22.277 43.692 22.277 44.212 22.6055 44.5406L22.6275 44.5622C22.956 44.8911 23.476 44.8911 23.8046 44.5622L31.7212 36.6459C32.0497 36.3174 32.0497 35.7973 31.7212 35.4688L31.6992 35.4468C31.3761 35.1183 30.856 35.1183 30.5275 35.4468Z" fill="#FA0064"/>
<path fill-rule="evenodd" clip-rule="evenodd" d="M28.8092 37.1444L23.6764 42.2899C23.348 42.619 23.348 43.1401 23.6764 43.4692L23.6981 43.4912C24.0264 43.8201 24.5462 43.8201 24.8746 43.4912L30.0077 38.3458C30.336 38.0166 30.336 37.4956 30.0077 37.1664L29.9857 37.1444C29.6573 36.8373 29.121 36.8373 28.8092 37.1444Z" fill="#BE0064"/>
<path fill-rule="evenodd" clip-rule="evenodd" d="M28.366 40.0011L29.426 41.0611C29.7547 41.3898 29.7547 41.9101 29.426 42.2388L29.4041 42.2608C29.0754 42.5895 28.5551 42.5895 28.2265 42.2608L27.1666 41.2008L25.6412 42.7263C25.3125 43.055 24.7923 43.055 24.4636 42.7263L24.4416 42.7046C24.113 42.3759 24.113 41.8556 24.4416 41.5266L25.9671 40.0011L24.6937 38.7275C24.3651 38.3988 24.3651 37.8785 24.6937 37.5498L24.7157 37.5278C25.0441 37.1991 25.5646 37.1991 25.893 37.5278L27.1665 38.8015L27.9581 38.0099C28.2868 37.6812 28.807 37.6812 29.1357 38.0099L29.1577 38.0319C29.4863 38.3606 29.4863 38.8809 29.1577 39.2093L28.366 40.0011Z" fill="black"/>
</g>
</g>
<defs>
<clipPath id="clip0_4469_92010">
<rect width="80" height="80" fill="white"/>
</clipPath>
<clipPath id="clip1_4469_92010">
<rect width="36.7568" height="10.8385" fill="white" transform="translate(21.6216 34.5808)"/>
</clipPath>
</defs>
</svg>
