<svg width="218" height="38" viewBox="0 0 218 38" fill="none" xmlns="http://www.w3.org/2000/svg">
<path fill-rule="evenodd" clip-rule="evenodd" d="M43.6866 16.8867H35.4055C34.1981 16.8867 33.2065 17.8928 33.2065 19.1179C33.2065 20.3441 34.1981 21.3502 35.4055 21.3502H43.6866C44.894 21.3502 45.8856 20.3441 45.8856 19.1179C45.8856 17.8928 44.9154 16.8867 43.6866 16.8867" fill="#F5F5F5"/>
<path fill-rule="evenodd" clip-rule="evenodd" d="M64.4214 19.0903L71.7314 9.97152C72.4856 9.06557 72.335 7.62127 71.429 6.84458C71.0412 6.5422 70.5241 6.3916 70.0711 6.3916C69.3809 6.3916 68.7773 6.69398 68.3883 7.23233L60.6265 16.8918H54.9993V8.6126C54.9993 7.40546 54.0067 6.41295 52.7995 6.41295C51.5922 6.41295 50.5996 7.40546 50.5996 8.6126V29.5253C50.5996 30.7324 51.5922 31.7249 52.7995 31.7249C54.0067 31.7249 54.9993 30.7324 54.9993 29.5253V21.3113H60.5399L68.3029 30.8842C68.6907 31.4226 69.3596 31.7249 69.9846 31.7249C70.5241 31.7249 70.976 31.5732 71.3424 31.272C71.7954 30.8842 72.0979 30.366 72.1844 29.8277C72.2698 29.2241 72.0978 28.6846 71.7314 28.2316L64.4214 19.0903Z" fill="#F5F5F5"/>
<path fill-rule="evenodd" clip-rule="evenodd" d="M79.7988 15.8475C79.7988 12.494 82.2407 10.7411 84.6838 10.7411H89.331C91.7741 10.7411 94.216 12.494 94.216 15.8475V22.3378C94.216 25.6913 91.7741 27.4441 89.331 27.4441H84.6838C82.2407 27.4441 79.7988 25.6913 79.7988 22.3378V15.8475ZM89.331 6.3916H84.6838C81.9387 6.3916 79.5824 7.4519 77.8312 9.4428C76.2964 11.1957 75.4761 13.5543 75.4761 15.9343V22.4247C75.4761 24.7833 76.319 27.1633 77.8312 28.915C79.5824 30.9059 81.9387 31.9662 84.6838 31.9662H89.331C92.0761 31.9662 94.4324 30.9059 96.1835 28.915C97.7184 27.1633 98.5399 24.8047 98.5399 22.4247V15.9343C98.5399 13.5757 97.6958 11.1957 96.1835 9.4428C94.4324 7.4519 92.0119 6.3916 89.331 6.3916V6.3916Z" fill="#F5F5F5"/>
<path fill-rule="evenodd" clip-rule="evenodd" d="M136.857 9.43876C135.105 7.4505 132.747 6.3916 130 6.3916H128.162C125.415 6.3916 123.058 7.4505 121.305 9.43876C121.218 9.52551 121.154 9.58969 121.067 9.67644C120.982 9.58969 120.916 9.52551 120.829 9.43876C119.077 7.4505 116.721 6.3916 113.973 6.3916H112.222C109.475 6.3916 107.117 7.4505 105.365 9.43876C103.829 11.1893 103.007 13.5436 103.007 15.9205V29.6422C103.007 30.852 104.003 31.8456 105.214 31.8456C106.425 31.8456 107.419 30.852 107.419 29.6422V15.9205C107.419 12.5715 109.864 10.8221 112.308 10.8221H114.146C116.591 10.8221 119.034 12.5715 119.034 15.9205V29.6422C119.034 30.852 120.029 31.8456 121.241 31.8456C122.452 31.8456 123.447 30.852 123.447 29.6422V15.9205C123.447 12.5715 125.891 10.8221 128.335 10.8221H130.174C132.617 10.8221 135.062 12.5715 135.062 15.9205V29.6422C135.062 30.852 136.056 31.8456 137.267 31.8456C138.48 31.8456 139.474 30.852 139.474 29.6422V15.9205C139.3 13.4794 138.393 11.124 136.857 9.43876" fill="#F5F5F5"/>
<path fill-rule="evenodd" clip-rule="evenodd" d="M16.6464 21.348L0.970408 5.68733C-0.32347 4.39471 -0.32347 2.34857 0.970408 1.05595L1.0558 0.969461C2.34967 -0.323154 4.39901 -0.323154 5.6917 0.969461L21.3688 16.6301C22.6627 17.9227 22.6627 19.9689 21.3688 21.2615L21.2823 21.348C19.9884 22.6406 17.9402 22.6406 16.6464 21.348" fill="#0082FA"/>
<path fill-rule="evenodd" clip-rule="evenodd" d="M32.3456 37.0301L16.6696 21.3695C15.3757 20.0768 15.3757 18.0307 16.6696 16.7381L16.7562 16.6516C18.0501 15.359 20.0982 15.359 21.3921 16.6516L37.0681 32.3134C38.3619 33.6049 38.3619 35.651 37.0681 36.9436L36.9815 37.0301C35.6876 38.3227 33.6395 38.3227 32.3456 37.0301" fill="#8250FA"/>
<path fill-rule="evenodd" clip-rule="evenodd" d="M16.7646 21.4697L6.64669 11.3617C5.35214 10.0684 5.35214 8.02117 6.64669 6.72789L6.73213 6.64135C8.02667 5.34807 10.0771 5.34807 11.3704 6.64135L21.4895 16.7494C22.784 18.0426 22.784 20.0899 21.4895 21.3831L21.4029 21.4697C20.1083 22.763 18.0591 22.763 16.7646 21.4697" fill="#0FD2FF"/>
<path fill-rule="evenodd" clip-rule="evenodd" d="M26.2406 30.9485L16.6754 21.3992C15.3738 20.0998 15.3738 18.043 16.6754 16.7436L16.7625 16.6567C18.064 15.3573 20.1242 15.3573 21.4258 16.6567L30.9039 26.119C32.2055 27.4184 32.2055 29.4764 30.9039 30.7746L30.8168 30.8615C29.538 32.1609 27.4551 32.1609 26.2406 30.9485" fill="#C382FA"/>
<path fill-rule="evenodd" clip-rule="evenodd" d="M32.3559 1.09341L1.09435 32.3034C-0.202024 33.5985 -0.202024 35.6486 1.09435 36.9437L1.1811 37.0292C2.47747 38.3255 4.52957 38.3255 5.82595 37.0292L37.0661 5.82043C38.3625 4.52531 38.3625 2.47519 37.0661 1.18007L36.9794 1.09341C35.7044 -0.20171 33.6523 -0.20171 32.3559 1.09341" fill="#BE0064"/>
<path fill-rule="evenodd" clip-rule="evenodd" d="M25.5748 7.78407L5.31997 28.0691C4.0242 29.3667 4.0242 31.4208 5.31997 32.7184L5.40548 32.8052C6.70125 34.1017 8.75239 34.1017 10.0482 32.8052L30.3042 12.5202C31.5999 11.2226 31.5999 9.16852 30.3042 7.8709L30.2175 7.78407C28.9217 6.57328 26.8052 6.57328 25.5748 7.78407" fill="#FA0064"/>
<path fill-rule="evenodd" clip-rule="evenodd" d="M23.8287 19.0482L28.0116 23.2269C29.3086 24.5227 29.3086 26.574 28.0116 27.8699L27.9249 27.9566C26.6279 29.2525 24.5749 29.2525 23.2779 27.9566L19.0954 23.7776L13.0761 29.7919C11.7791 31.0877 9.72609 31.0877 8.42913 29.7919L8.34235 29.7064C7.04539 28.4105 7.04539 26.3592 8.34235 25.0621L14.362 19.048L9.33712 14.0274C8.04016 12.7315 8.04016 10.6802 9.33712 9.3843L9.4239 9.29759C10.7197 8.00172 12.7739 8.00172 14.0696 9.29759L19.0953 14.3191L22.219 11.1983C23.5159 9.90241 25.5689 9.90241 26.8659 11.1983L26.9527 11.285C28.2496 12.5809 28.2496 14.6322 26.9527 15.9269L23.8287 19.0482V19.0482Z" fill="#F5F5F5"/>
<path fill-rule="evenodd" clip-rule="evenodd" d="M151.879 10.1055C152.116 10.3298 152.116 10.7075 151.879 10.9436C151.654 11.1796 151.276 11.1796 151.051 10.9436C150.826 10.7075 150.826 10.3298 151.051 10.1055C151.276 9.86946 151.654 9.86946 151.879 10.1055ZM151.95 12.5606V17.8249C151.95 18.1082 151.749 18.3206 151.465 18.3206C151.217 18.3206 150.992 18.1082 150.992 17.8249V12.5606C150.992 12.2891 151.193 12.0649 151.465 12.0649C151.737 12.0649 151.95 12.2891 151.95 12.5606ZM159.299 14.3901V17.8249C159.299 18.1082 159.11 18.3206 158.826 18.3206C158.554 18.3206 158.341 18.1082 158.341 17.8249V14.4373C158.341 13.4105 157.666 12.8911 156.755 12.8911C156.104 12.8911 155.56 13.0209 155.122 13.2806V17.8249C155.122 18.1082 154.921 18.3206 154.648 18.3206C154.376 18.3206 154.163 18.1082 154.163 17.8249V13.0446C154.163 12.8675 154.234 12.7259 154.376 12.6196C154.802 12.3009 155.69 11.9823 156.778 11.9823C158.423 11.9823 159.299 12.8321 159.299 14.3901ZM164.352 18.179C164.009 18.3088 163.595 18.3796 163.133 18.3796C161.914 18.3796 161.311 17.6006 161.311 16.4321V11.2977C161.311 11.0262 161.512 10.8137 161.784 10.8137C162.056 10.8137 162.269 11.0262 162.269 11.2977V12.2655H164.056C164.293 12.2655 164.506 12.4662 164.506 12.7023C164.506 12.9383 164.293 13.139 164.056 13.139H162.269V16.4675C162.269 17.0931 162.565 17.4944 163.181 17.4944C163.323 17.4944 163.642 17.4236 164.127 17.2819C164.506 17.1875 164.743 17.4 164.743 17.7187C164.743 17.9429 164.612 18.0964 164.352 18.179ZM171.204 14.5436V14.8977C171.204 15.358 170.967 15.5823 170.506 15.5823H166.967V15.7711C166.967 16.857 167.677 17.5062 168.731 17.5062C169.121 17.5062 169.594 17.4 170.174 17.1993C170.565 17.0459 170.861 17.2819 170.861 17.577C170.861 17.7541 170.778 17.8957 170.6 18.0019C170.222 18.2262 169.417 18.3796 168.719 18.3796C167.109 18.3796 166.115 17.3882 166.032 15.8419C165.997 15.2872 166.009 14.815 166.044 14.4255C166.174 12.9147 167.204 11.9823 168.66 11.9823C169.429 11.9823 170.044 12.2183 170.506 12.7023C170.967 13.1744 171.204 13.7882 171.204 14.5436ZM166.967 14.7796H170.115C170.21 14.7796 170.257 14.7324 170.269 14.638C170.328 13.5639 169.701 12.8439 168.671 12.8439C167.535 12.8439 166.932 13.5875 166.967 14.7796ZM173.937 10.377V17.8249C173.937 18.1082 173.736 18.3206 173.452 18.3206C173.18 18.3206 172.979 18.1082 172.979 17.8249V10.377C172.979 10.1055 173.18 9.89307 173.452 9.89307C173.724 9.89307 173.937 10.1055 173.937 10.377ZM177.05 10.1055C177.286 10.3298 177.286 10.7075 177.05 10.9436C176.825 11.1796 176.446 11.1796 176.221 10.9436C175.997 10.7075 175.997 10.3298 176.221 10.1055C176.446 9.86946 176.825 9.86946 177.05 10.1055ZM177.121 12.5606V17.8249C177.121 18.1082 176.92 18.3206 176.636 18.3206C176.387 18.3206 176.162 18.1082 176.162 17.8249V12.5606C176.162 12.2891 176.363 12.0649 176.636 12.0649C176.908 12.0649 177.121 12.2891 177.121 12.5606ZM184.316 13.1272V17.7305C184.316 19.4774 183.251 20.4688 181.653 20.4688C180.943 20.4688 180.316 20.3036 179.783 19.9731C179.511 19.796 179.369 19.6308 179.369 19.4656C179.369 19.2413 179.523 19.017 179.819 19.017C179.949 19.017 180.115 19.076 180.328 19.2059C180.766 19.4537 181.215 19.5836 181.653 19.5836C182.6 19.5836 183.357 18.9698 183.357 17.9311V17.8131C182.789 18.0846 182.209 18.2144 181.618 18.2144C180.162 18.2144 179.263 17.3173 179.168 15.8655C179.132 15.3698 179.132 14.8741 179.168 14.3783C179.263 12.9265 180.198 11.9823 181.748 11.9823C182.221 11.9823 182.683 12.0649 183.132 12.2183C183.582 12.3718 183.913 12.5134 184.114 12.655C184.245 12.7613 184.316 12.9147 184.316 13.1272ZM181.783 12.8911C180.777 12.8911 180.221 13.4105 180.126 14.4373C180.091 14.8387 180.091 15.299 180.126 15.8065C180.198 16.8216 180.73 17.3292 181.712 17.3292C182.434 17.3292 183.109 17.0695 183.357 16.8452V13.316C183.357 13.2806 182.635 12.9029 181.783 12.8911ZM191.44 14.5436V14.8977C191.44 15.358 191.203 15.5823 190.741 15.5823H187.203V15.7711C187.203 16.857 187.913 17.5062 188.966 17.5062C189.357 17.5062 189.83 17.4 190.41 17.1993C190.801 17.0459 191.096 17.2819 191.096 17.577C191.096 17.7541 191.014 17.8957 190.836 18.0019C190.457 18.2262 189.653 18.3796 188.954 18.3796C187.345 18.3796 186.351 17.3882 186.268 15.8419C186.233 15.2872 186.245 14.815 186.28 14.4255C186.41 12.9147 187.44 11.9823 188.895 11.9823C189.665 11.9823 190.28 12.2183 190.741 12.7023C191.203 13.1744 191.44 13.7882 191.44 14.5436ZM187.203 14.7796H190.351C190.446 14.7796 190.493 14.7324 190.505 14.638C190.564 13.5639 189.937 12.8439 188.907 12.8439C187.771 12.8439 187.168 13.5875 187.203 14.7796ZM198.339 14.3901V17.8249C198.339 18.1082 198.149 18.3206 197.865 18.3206C197.593 18.3206 197.38 18.1082 197.38 17.8249V14.4373C197.38 13.4105 196.706 12.8911 195.794 12.8911C195.144 12.8911 194.599 13.0209 194.161 13.2806V17.8249C194.161 18.1082 193.96 18.3206 193.688 18.3206C193.416 18.3206 193.203 18.1082 193.203 17.8249V13.0446C193.203 12.8675 193.274 12.7259 193.416 12.6196C193.842 12.3009 194.729 11.9823 195.818 11.9823C197.463 11.9823 198.339 12.8321 198.339 14.3901ZM203.392 18.179C203.048 18.3088 202.634 18.3796 202.173 18.3796C200.954 18.3796 200.35 17.6006 200.35 16.4321V11.2977C200.35 11.0262 200.552 10.8137 200.824 10.8137C201.096 10.8137 201.309 11.0262 201.309 11.2977V12.2655H203.096C203.332 12.2655 203.545 12.4662 203.545 12.7023C203.545 12.9383 203.332 13.139 203.096 13.139H201.309V16.4675C201.309 17.0931 201.605 17.4944 202.22 17.4944C202.362 17.4944 202.682 17.4236 203.167 17.2819C203.545 17.1875 203.782 17.4 203.782 17.7187C203.782 17.9429 203.652 18.0964 203.392 18.179ZM210.374 14.3901V17.8249C210.374 18.1082 210.184 18.3206 209.9 18.3206C209.628 18.3206 209.415 18.1082 209.415 17.8249V14.4373C209.415 13.4105 208.741 12.8911 207.829 12.8911C207.178 12.8911 206.634 13.0209 206.196 13.2806V17.8249C206.196 18.1082 205.995 18.3206 205.723 18.3206C205.451 18.3206 205.238 18.1082 205.238 17.8249V13.0446C205.238 12.8675 205.309 12.7259 205.451 12.6196C205.877 12.3009 206.764 11.9823 207.853 11.9823C209.498 11.9823 210.374 12.8321 210.374 14.3901ZM214.042 17.8839L211.794 12.7613C211.652 12.419 211.876 12.0767 212.243 12.0767C212.433 12.0767 212.586 12.1947 212.693 12.419L214.527 16.6328C214.563 16.6918 214.586 16.6918 214.622 16.6328L216.29 12.4544C216.385 12.2065 216.539 12.0767 216.764 12.0767C217.131 12.0767 217.355 12.4308 217.213 12.7613L214.989 18.1436C214.551 19.1941 213.876 20.0675 213.344 20.3862C213.19 20.4806 213.048 20.5279 212.918 20.5279C212.669 20.5279 212.444 20.3508 212.444 20.0793C212.444 19.8905 212.515 19.7488 212.669 19.6662C213.297 19.3003 213.758 18.7101 214.042 17.8839ZM156.515 29.4882L155.343 24.9675C155.332 24.9321 155.32 24.9203 155.284 24.9203C155.249 24.9203 155.225 24.9321 155.225 24.9675L154.018 29.4764C153.888 29.9721 153.604 30.22 153.166 30.22C152.74 30.22 152.409 29.9603 152.278 29.4882L150.906 24.5308C150.811 24.1649 151.012 23.8462 151.344 23.8462C151.568 23.8462 151.722 23.9642 151.781 24.1885L153.119 29.1695C153.142 29.2521 153.213 29.2521 153.237 29.1695L154.432 24.5426C154.539 24.1177 154.894 23.8462 155.284 23.8462C155.698 23.8462 156.03 24.1177 156.136 24.5544L157.332 29.1695C157.355 29.2521 157.426 29.2521 157.45 29.1695L158.74 24.2239C158.787 23.976 158.941 23.8462 159.213 23.8462C159.544 23.8462 159.746 24.1885 159.651 24.5308L158.266 29.4882C158.124 29.9721 157.829 30.22 157.391 30.22C156.929 30.22 156.633 29.9721 156.515 29.4882ZM162.682 29.6883L160.434 24.5657C160.292 24.2234 160.517 23.8811 160.884 23.8811C161.073 23.8811 161.227 23.9992 161.333 24.2234L163.168 28.4372C163.203 28.4962 163.227 28.4962 163.262 28.4372L164.931 24.2588C165.026 24.011 165.179 23.8811 165.404 23.8811C165.771 23.8811 165.996 24.2352 165.854 24.5657L163.629 29.948C163.191 30.9985 162.517 31.872 161.984 32.1906C161.83 32.2851 161.688 32.3323 161.558 32.3323C161.31 32.3323 161.085 32.1552 161.085 31.8838C161.085 31.6949 161.156 31.5533 161.31 31.4706C161.937 31.1047 162.398 30.5146 162.682 29.6883ZM172.306 26.1232C172.353 26.6897 172.353 27.2445 172.306 27.7992C172.176 29.2746 171.241 30.1835 169.69 30.1835C169.229 30.1835 168.779 30.1009 168.341 29.9474C167.904 29.794 167.572 29.6287 167.347 29.4753C167.217 29.3927 167.158 29.2628 167.158 29.0858V22.1809C167.158 21.9094 167.359 21.6851 167.631 21.6851C167.904 21.6851 168.117 21.9094 168.117 22.1809V24.1638C168.685 23.9159 169.253 23.7861 169.821 23.7861C171.3 23.7861 172.176 24.6477 172.306 26.1232ZM171.329 27.7297C171.364 27.2812 171.364 26.7736 171.329 26.1953C171.269 25.192 170.749 24.6844 169.778 24.6844C169.139 24.6844 168.583 24.8261 168.11 25.0975V28.8038C168.252 28.91 168.477 29.028 168.796 29.1343C169.116 29.2405 169.4 29.2877 169.672 29.2877C170.678 29.2877 171.234 28.7684 171.329 27.7297ZM179.369 26.1221C179.405 26.6887 179.405 27.2434 179.369 27.7982C179.334 28.4946 179.062 29.0612 178.565 29.5097C178.079 29.9582 177.464 30.1825 176.73 30.1825C176.008 30.1825 175.393 29.9582 174.896 29.5097C174.399 29.0612 174.127 28.4946 174.091 27.7982C174.056 27.2434 174.056 26.6887 174.091 26.1221C174.127 25.4375 174.399 24.8828 174.884 24.4461C175.381 24.0093 175.997 23.7851 176.73 23.7851C177.464 23.7851 178.079 23.9975 178.565 24.4343C179.062 24.871 179.334 25.4257 179.369 26.1221ZM175.052 26.1953C175.016 26.7146 175.016 27.2339 175.052 27.7415C175.135 28.6739 175.786 29.2877 176.732 29.2877C177.679 29.2877 178.33 28.6739 178.413 27.7415C178.448 27.2339 178.448 26.7146 178.413 26.1953C178.353 25.2982 177.714 24.6844 176.732 24.6844C175.75 24.6844 175.111 25.2982 175.052 26.1953ZM175.71 22.3708L177.319 21.5446C177.402 21.5092 177.461 21.4974 177.52 21.4974C177.745 21.4974 177.923 21.6744 177.923 21.8987C177.923 22.0521 177.852 22.1702 177.698 22.2528L176.1 23.079C176.041 23.1144 175.97 23.138 175.887 23.138C175.662 23.138 175.497 22.961 175.497 22.7367C175.497 22.5715 175.568 22.4535 175.71 22.3708ZM184.148 23.9149C184.397 23.9739 184.527 24.1274 184.527 24.3634C184.527 24.5877 184.349 24.8002 184.054 24.8002C183.994 24.8002 183.852 24.7884 183.651 24.7529C183.45 24.7175 183.273 24.7057 183.119 24.7057C182.48 24.7175 182.16 25.0716 182.16 25.768V29.6395C182.16 29.911 181.947 30.1234 181.675 30.1234C181.403 30.1234 181.19 29.911 181.19 29.6395V25.6618C181.19 24.4933 181.888 23.7851 183.119 23.7851C183.533 23.7851 183.876 23.8323 184.148 23.9149Z" fill="#B3B2B2"/>
</svg>
