<svg width="218" height="38" viewBox="0 0 218 38" fill="none" xmlns="http://www.w3.org/2000/svg">
<path fill-rule="evenodd" clip-rule="evenodd" d="M43.6864 16.8869H35.4053C34.1978 16.8869 33.2063 17.893 33.2063 19.1181C33.2063 20.3444 34.1978 21.3504 35.4053 21.3504H43.6864C44.8938 21.3504 45.8853 20.3444 45.8853 19.1181C45.8853 17.893 44.9151 16.8869 43.6864 16.8869Z" fill="var(--color-black, #000)"/>
<path fill-rule="evenodd" clip-rule="evenodd" d="M64.4216 19.0902L71.7315 9.97146C72.4858 9.06551 72.3352 7.62121 71.4291 6.84451C71.0413 6.54214 70.5243 6.39154 70.0712 6.39154C69.381 6.39154 68.7774 6.69392 68.3884 7.23227L60.6266 16.8918H54.9995V8.61254C54.9995 7.4054 54.0069 6.41288 52.7996 6.41288C51.5923 6.41288 50.5997 7.4054 50.5997 8.61254V29.5252C50.5997 30.7324 51.5923 31.7249 52.7996 31.7249C54.0069 31.7249 54.9995 30.7324 54.9995 29.5252V21.3112H60.5401L68.303 30.8841C68.6908 31.4225 69.3597 31.7249 69.9847 31.7249C70.5243 31.7249 70.9761 31.5731 71.3425 31.2719C71.7956 30.8841 72.098 30.366 72.1845 29.8276C72.2699 29.224 72.098 28.6845 71.7315 28.2315L64.4216 19.0902Z" fill="var(--color-black, #000)"/>
<path fill-rule="evenodd" clip-rule="evenodd" d="M79.7988 15.8474C79.7988 12.4939 82.2407 10.741 84.6838 10.741H89.331C91.7741 10.741 94.216 12.4939 94.216 15.8474V22.3377C94.216 25.6912 91.7741 27.4441 89.331 27.4441H84.6838C82.2407 27.4441 79.7988 25.6912 79.7988 22.3377V15.8474ZM89.331 6.39154H84.6838C81.9387 6.39154 79.5824 7.45184 77.8312 9.44274C76.2964 11.1956 75.4761 13.5542 75.4761 15.9343V22.4246C75.4761 24.7832 76.319 27.1632 77.8312 28.9149C79.5824 30.9058 81.9387 31.9661 84.6838 31.9661H89.331C92.0761 31.9661 94.4324 30.9058 96.1835 28.9149C97.7184 27.1632 98.5399 24.8046 98.5399 22.4246V15.9343C98.5399 13.5757 97.6958 11.1956 96.1835 9.44274C94.4324 7.45184 92.0119 6.39154 89.331 6.39154Z" fill="var(--color-black, #000)"/>
<path fill-rule="evenodd" clip-rule="evenodd" d="M136.857 9.4387C135.105 7.45044 132.747 6.39154 130 6.39154H128.162C125.415 6.39154 123.058 7.45044 121.305 9.4387C121.218 9.52545 121.154 9.58963 121.067 9.67638C120.982 9.58963 120.916 9.52545 120.829 9.4387C119.077 7.45044 116.721 6.39154 113.973 6.39154H112.222C109.475 6.39154 107.117 7.45044 105.365 9.4387C103.829 11.1893 103.007 13.5436 103.007 15.9204V29.6421C103.007 30.852 104.003 31.8455 105.214 31.8455C106.425 31.8455 107.419 30.852 107.419 29.6421V15.9204C107.419 12.5714 109.864 10.822 112.308 10.822H114.146C116.591 10.822 119.034 12.5714 119.034 15.9204V29.6421C119.034 30.852 120.029 31.8455 121.241 31.8455C122.452 31.8455 123.447 30.852 123.447 29.6421V15.9204C123.447 12.5714 125.891 10.822 128.335 10.822H130.174C132.617 10.822 135.062 12.5714 135.062 15.9204V29.6421C135.062 30.852 136.056 31.8455 137.267 31.8455C138.48 31.8455 139.474 30.852 139.474 29.6421V15.9204C139.3 13.4794 138.393 11.1239 136.857 9.4387Z" fill="var(--color-black, #000)"/>
<path fill-rule="evenodd" clip-rule="evenodd" d="M16.6464 21.348L0.970408 5.68733C-0.32347 4.39471 -0.32347 2.34857 0.970408 1.05595L1.0558 0.969462C2.34967 -0.323154 4.39901 -0.323154 5.6917 0.969462L21.3688 16.6301C22.6627 17.9227 22.6627 19.9689 21.3688 21.2615L21.2823 21.348C19.9884 22.6406 17.9403 22.6406 16.6464 21.348Z" fill="#0FD2FF"/>
<path fill-rule="evenodd" clip-rule="evenodd" d="M32.3458 37.03L16.6699 21.3693C15.376 20.0767 15.376 18.0306 16.6699 16.7379L16.7564 16.6515C18.0503 15.3588 20.0985 15.3588 21.3923 16.6515L37.0683 32.3133C38.3622 33.6047 38.3622 35.6509 37.0683 36.9435L36.9817 37.03C35.6879 38.3226 33.6397 38.3226 32.3458 37.03Z" fill="#C382FA"/>
<path fill-rule="evenodd" clip-rule="evenodd" d="M16.7643 21.4695L6.64645 11.3615C5.3519 10.0682 5.3519 8.02097 6.64645 6.72769L6.73188 6.64115C8.02643 5.34787 10.0768 5.34787 11.3702 6.64115L21.4892 16.7492C22.7838 18.0425 22.7838 20.0897 21.4892 21.3829L21.4026 21.4695C20.1081 22.7628 18.0589 22.7628 16.7643 21.4695Z" fill="#0082FA"/>
<path fill-rule="evenodd" clip-rule="evenodd" d="M26.2409 30.9483L16.6756 21.399C15.3741 20.0997 15.3741 18.0428 16.6756 16.7435L16.7627 16.6565C18.0642 15.3572 20.1245 15.3572 21.426 16.6565L30.9042 26.1189C32.2057 27.4183 32.2057 29.4763 30.9042 30.7745L30.8171 30.8614C29.5382 32.1608 27.4553 32.1608 26.2409 30.9483Z" fill="#8250FA"/>
<path fill-rule="evenodd" clip-rule="evenodd" d="M32.3561 1.09358L1.09448 32.3035C-0.201902 33.5987 -0.201902 35.6488 1.09448 36.9439L1.18122 37.0294C2.47759 38.3257 4.5297 38.3257 5.82607 37.0294L37.0663 5.8206C38.3626 4.52548 38.3626 2.47536 37.0663 1.18024L36.9795 1.09358C35.7045 -0.201542 33.6524 -0.201542 32.3561 1.09358Z" fill="#FA0064"/>
<path fill-rule="evenodd" clip-rule="evenodd" d="M25.575 7.78424L5.32021 28.0693C4.02445 29.3669 4.02445 31.421 5.32021 32.7186L5.40573 32.8054C6.7015 34.1018 8.75263 34.1018 10.0484 32.8054L30.3044 12.5204C31.6002 11.2228 31.6002 9.16869 30.3044 7.87107L30.2177 7.78424C28.922 6.57345 26.8055 6.57345 25.575 7.78424Z" fill="#BE0064"/>
<path fill-rule="evenodd" clip-rule="evenodd" d="M23.8286 19.0481L28.0115 23.2268C29.3085 24.5226 29.3085 26.574 28.0115 27.8698L27.9247 27.9565C26.6278 29.2524 24.5748 29.2524 23.2778 27.9565L19.0953 23.7775L13.0759 29.7918C11.779 31.0877 9.72596 31.0877 8.42901 29.7918L8.34223 29.7063C7.04527 28.4104 7.04527 26.3591 8.34223 25.062L14.3619 19.0479L9.337 14.0273C8.04004 12.7314 8.04004 10.6801 9.337 9.38421L9.42378 9.2975C10.7195 8.00162 12.7738 8.00162 14.0695 9.2975L19.0952 14.319L22.2188 11.1982C23.5158 9.90232 25.5688 9.90232 26.8658 11.1982L26.9526 11.2849C28.2495 12.5808 28.2495 14.6321 26.9526 15.9268L23.8286 19.0481Z" fill="var(--color-black, #000)"/>
<path fill-rule="evenodd" clip-rule="evenodd" d="M151.879 10.1054C152.116 10.3297 152.116 10.7074 151.879 10.9434C151.654 11.1795 151.276 11.1795 151.051 10.9434C150.826 10.7074 150.826 10.3297 151.051 10.1054C151.276 9.86932 151.654 9.86932 151.879 10.1054ZM151.95 12.5605V17.8248C151.95 18.108 151.749 18.3205 151.465 18.3205C151.217 18.3205 150.992 18.108 150.992 17.8248V12.5605C150.992 12.289 151.193 12.0647 151.465 12.0647C151.737 12.0647 151.95 12.289 151.95 12.5605ZM159.299 14.39V17.8248C159.299 18.108 159.11 18.3205 158.826 18.3205C158.554 18.3205 158.341 18.108 158.341 17.8248V14.4372C158.341 13.4103 157.666 12.891 156.755 12.891C156.104 12.891 155.56 13.0208 155.122 13.2805V17.8248C155.122 18.108 154.921 18.3205 154.648 18.3205C154.376 18.3205 154.163 18.108 154.163 17.8248V13.0444C154.163 12.8674 154.234 12.7257 154.376 12.6195C154.802 12.3008 155.69 11.9821 156.778 11.9821C158.423 11.9821 159.299 12.832 159.299 14.39ZM164.352 18.1789C164.009 18.3087 163.595 18.3795 163.133 18.3795C161.914 18.3795 161.311 17.6005 161.311 16.432V11.2975C161.311 11.026 161.512 10.8136 161.784 10.8136C162.056 10.8136 162.269 11.026 162.269 11.2975V12.2654H164.056C164.293 12.2654 164.506 12.4661 164.506 12.7021C164.506 12.9382 164.293 13.1388 164.056 13.1388H162.269V16.4674C162.269 17.0929 162.565 17.4943 163.181 17.4943C163.323 17.4943 163.642 17.4234 164.127 17.2818C164.506 17.1874 164.743 17.3998 164.743 17.7185C164.743 17.9428 164.612 18.0962 164.352 18.1789ZM171.204 14.5434V14.8975C171.204 15.3579 170.967 15.5821 170.506 15.5821H166.967V15.771C166.967 16.8569 167.677 17.5061 168.731 17.5061C169.121 17.5061 169.594 17.3998 170.174 17.1992C170.565 17.0457 170.861 17.2818 170.861 17.5769C170.861 17.7539 170.778 17.8956 170.6 18.0018C170.222 18.2261 169.417 18.3795 168.719 18.3795C167.109 18.3795 166.115 17.388 166.032 15.8418C165.997 15.287 166.009 14.8149 166.044 14.4254C166.174 12.9146 167.204 11.9821 168.66 11.9821C169.429 11.9821 170.044 12.2182 170.506 12.7021C170.967 13.1742 171.204 13.788 171.204 14.5434ZM166.967 14.7795H170.115C170.21 14.7795 170.257 14.7323 170.269 14.6379C170.328 13.5638 169.701 12.8438 168.671 12.8438C167.535 12.8438 166.932 13.5874 166.967 14.7795ZM173.937 10.3769V17.8248C173.937 18.108 173.736 18.3205 173.452 18.3205C173.18 18.3205 172.979 18.108 172.979 17.8248V10.3769C172.979 10.1054 173.18 9.89293 173.452 9.89293C173.724 9.89293 173.937 10.1054 173.937 10.3769ZM177.05 10.1054C177.286 10.3297 177.286 10.7074 177.05 10.9434C176.825 11.1795 176.446 11.1795 176.221 10.9434C175.997 10.7074 175.997 10.3297 176.221 10.1054C176.446 9.86932 176.825 9.86932 177.05 10.1054ZM177.121 12.5605V17.8248C177.121 18.108 176.92 18.3205 176.636 18.3205C176.387 18.3205 176.162 18.108 176.162 17.8248V12.5605C176.162 12.289 176.363 12.0647 176.636 12.0647C176.908 12.0647 177.121 12.289 177.121 12.5605ZM184.316 13.127V17.7303C184.316 19.4772 183.251 20.4687 181.653 20.4687C180.943 20.4687 180.316 20.3035 179.783 19.973C179.511 19.7959 179.369 19.6307 179.369 19.4654C179.369 19.2412 179.523 19.0169 179.819 19.0169C179.949 19.0169 180.115 19.0759 180.328 19.2057C180.766 19.4536 181.215 19.5834 181.653 19.5834C182.6 19.5834 183.357 18.9697 183.357 17.931V17.813C182.789 18.0844 182.209 18.2143 181.618 18.2143C180.162 18.2143 179.263 17.3172 179.168 15.8654C179.132 15.3697 179.132 14.8739 179.168 14.3782C179.263 12.9264 180.198 11.9821 181.748 11.9821C182.221 11.9821 182.683 12.0647 183.132 12.2182C183.582 12.3716 183.913 12.5133 184.114 12.6549C184.245 12.7611 184.316 12.9146 184.316 13.127ZM181.783 12.891C180.777 12.891 180.221 13.4103 180.126 14.4372C180.091 14.8385 180.091 15.2988 180.126 15.8064C180.198 16.8215 180.73 17.329 181.712 17.329C182.434 17.329 183.109 17.0693 183.357 16.8451V13.3159C183.357 13.2805 182.635 12.9028 181.783 12.891ZM191.44 14.5434V14.8975C191.44 15.3579 191.203 15.5821 190.741 15.5821H187.203V15.771C187.203 16.8569 187.913 17.5061 188.966 17.5061C189.357 17.5061 189.83 17.3998 190.41 17.1992C190.801 17.0457 191.096 17.2818 191.096 17.5769C191.096 17.7539 191.014 17.8956 190.836 18.0018C190.457 18.2261 189.653 18.3795 188.954 18.3795C187.345 18.3795 186.351 17.388 186.268 15.8418C186.233 15.287 186.245 14.8149 186.28 14.4254C186.41 12.9146 187.44 11.9821 188.895 11.9821C189.665 11.9821 190.28 12.2182 190.741 12.7021C191.203 13.1742 191.44 13.788 191.44 14.5434ZM187.203 14.7795H190.351C190.446 14.7795 190.493 14.7323 190.505 14.6379C190.564 13.5638 189.937 12.8438 188.907 12.8438C187.771 12.8438 187.168 13.5874 187.203 14.7795ZM198.339 14.39V17.8248C198.339 18.108 198.149 18.3205 197.865 18.3205C197.593 18.3205 197.38 18.108 197.38 17.8248V14.4372C197.38 13.4103 196.706 12.891 195.794 12.891C195.144 12.891 194.599 13.0208 194.161 13.2805V17.8248C194.161 18.108 193.96 18.3205 193.688 18.3205C193.416 18.3205 193.203 18.108 193.203 17.8248V13.0444C193.203 12.8674 193.274 12.7257 193.416 12.6195C193.842 12.3008 194.729 11.9821 195.818 11.9821C197.463 11.9821 198.339 12.832 198.339 14.39ZM203.392 18.1789C203.048 18.3087 202.634 18.3795 202.173 18.3795C200.954 18.3795 200.35 17.6005 200.35 16.432V11.2975C200.35 11.026 200.552 10.8136 200.824 10.8136C201.096 10.8136 201.309 11.026 201.309 11.2975V12.2654H203.096C203.332 12.2654 203.545 12.4661 203.545 12.7021C203.545 12.9382 203.332 13.1388 203.096 13.1388H201.309V16.4674C201.309 17.0929 201.605 17.4943 202.22 17.4943C202.362 17.4943 202.682 17.4234 203.167 17.2818C203.545 17.1874 203.782 17.3998 203.782 17.7185C203.782 17.9428 203.652 18.0962 203.392 18.1789ZM210.374 14.39V17.8248C210.374 18.108 210.184 18.3205 209.9 18.3205C209.628 18.3205 209.415 18.108 209.415 17.8248V14.4372C209.415 13.4103 208.741 12.891 207.829 12.891C207.178 12.891 206.634 13.0208 206.196 13.2805V17.8248C206.196 18.108 205.995 18.3205 205.723 18.3205C205.451 18.3205 205.238 18.108 205.238 17.8248V13.0444C205.238 12.8674 205.309 12.7257 205.451 12.6195C205.877 12.3008 206.764 11.9821 207.853 11.9821C209.498 11.9821 210.374 12.832 210.374 14.39ZM214.042 17.8838L211.794 12.7611C211.652 12.4188 211.876 12.0765 212.243 12.0765C212.433 12.0765 212.586 12.1946 212.693 12.4188L214.527 16.6326C214.563 16.6916 214.586 16.6916 214.622 16.6326L216.29 12.4542C216.385 12.2064 216.539 12.0765 216.764 12.0765C217.131 12.0765 217.355 12.4306 217.213 12.7611L214.989 18.1434C214.551 19.1939 213.876 20.0674 213.344 20.3861C213.19 20.4805 213.048 20.5277 212.918 20.5277C212.669 20.5277 212.444 20.3507 212.444 20.0792C212.444 19.8903 212.515 19.7487 212.669 19.6661C213.297 19.3002 213.758 18.71 214.042 17.8838ZM156.515 29.488L155.343 24.9674C155.332 24.932 155.32 24.9202 155.284 24.9202C155.249 24.9202 155.225 24.932 155.225 24.9674L154.018 29.4762C153.888 29.972 153.604 30.2198 153.166 30.2198C152.74 30.2198 152.409 29.9602 152.278 29.488L150.906 24.5306C150.811 24.1647 151.012 23.8461 151.344 23.8461C151.568 23.8461 151.722 23.9641 151.781 24.1884L153.119 29.1693C153.142 29.252 153.213 29.252 153.237 29.1693L154.432 24.5424C154.539 24.1175 154.894 23.8461 155.284 23.8461C155.698 23.8461 156.03 24.1175 156.136 24.5543L157.332 29.1693C157.355 29.252 157.426 29.252 157.45 29.1693L158.74 24.2238C158.787 23.9759 158.941 23.8461 159.213 23.8461C159.544 23.8461 159.746 24.1884 159.651 24.5306L158.266 29.488C158.124 29.972 157.829 30.2198 157.391 30.2198C156.929 30.2198 156.633 29.972 156.515 29.488ZM162.682 29.6882L160.434 24.5656C160.292 24.2233 160.517 23.881 160.884 23.881C161.073 23.881 161.227 23.999 161.333 24.2233L163.168 28.4371C163.203 28.4961 163.227 28.4961 163.262 28.4371L164.931 24.2587C165.026 24.0108 165.179 23.881 165.404 23.881C165.771 23.881 165.996 24.2351 165.854 24.5656L163.629 29.9479C163.191 30.9984 162.517 31.8718 161.984 32.1905C161.83 32.2849 161.688 32.3322 161.558 32.3322C161.31 32.3322 161.085 32.1551 161.085 31.8836C161.085 31.6948 161.156 31.5531 161.31 31.4705C161.937 31.1046 162.398 30.5144 162.682 29.6882ZM172.306 26.123C172.353 26.6896 172.353 27.2443 172.306 27.7991C172.176 29.2745 171.241 30.1834 169.69 30.1834C169.229 30.1834 168.779 30.1007 168.341 29.9473C167.904 29.7939 167.572 29.6286 167.347 29.4752C167.217 29.3925 167.158 29.2627 167.158 29.0857V22.1807C167.158 21.9092 167.359 21.685 167.631 21.685C167.904 21.685 168.117 21.9092 168.117 22.1807V24.1637C168.685 23.9158 169.253 23.786 169.821 23.786C171.3 23.786 172.176 24.6476 172.306 26.123ZM171.329 27.7295C171.364 27.281 171.364 26.7735 171.329 26.1951C171.269 25.1918 170.749 24.6843 169.778 24.6843C169.139 24.6843 168.583 24.8259 168.11 25.0974V28.8036C168.252 28.9099 168.477 29.0279 168.796 29.1341C169.116 29.2404 169.4 29.2876 169.672 29.2876C170.678 29.2876 171.234 28.7682 171.329 27.7295ZM179.369 26.122C179.405 26.6885 179.405 27.2433 179.369 27.7981C179.334 28.4945 179.062 29.061 178.565 29.5095C178.079 29.9581 177.464 30.1823 176.73 30.1823C176.008 30.1823 175.393 29.9581 174.896 29.5095C174.399 29.061 174.127 28.4945 174.091 27.7981C174.056 27.2433 174.056 26.6885 174.091 26.122C174.127 25.4374 174.399 24.8826 174.884 24.4459C175.381 24.0092 175.997 23.7849 176.73 23.7849C177.464 23.7849 178.079 23.9974 178.565 24.4341C179.062 24.8708 179.334 25.4256 179.369 26.122ZM175.052 26.1951C175.016 26.7145 175.016 27.2338 175.052 27.7413C175.135 28.6738 175.786 29.2876 176.732 29.2876C177.679 29.2876 178.33 28.6738 178.413 27.7413C178.448 27.2338 178.448 26.7145 178.413 26.1951C178.353 25.2981 177.714 24.6843 176.732 24.6843C175.75 24.6843 175.111 25.2981 175.052 26.1951ZM175.71 22.3707L177.319 21.5445C177.402 21.5091 177.461 21.4972 177.52 21.4972C177.745 21.4972 177.923 21.6743 177.923 21.8986C177.923 22.052 177.852 22.17 177.698 22.2527L176.1 23.0789C176.041 23.1143 175.97 23.1379 175.887 23.1379C175.662 23.1379 175.497 22.9609 175.497 22.7366C175.497 22.5714 175.568 22.4533 175.71 22.3707ZM184.148 23.9148C184.397 23.9738 184.527 24.1272 184.527 24.3633C184.527 24.5876 184.349 24.8 184.054 24.8C183.994 24.8 183.852 24.7882 183.651 24.7528C183.45 24.7174 183.273 24.7056 183.119 24.7056C182.48 24.7174 182.16 25.0715 182.16 25.7679V29.6394C182.16 29.9109 181.947 30.1233 181.675 30.1233C181.403 30.1233 181.19 29.9109 181.19 29.6394V25.6617C181.19 24.4931 181.888 23.7849 183.119 23.7849C183.533 23.7849 183.876 23.8321 184.148 23.9148Z" fill="var(--color-neutral700, #444444)"/>
</svg>
