<svg width="48" height="48" viewBox="0 0 48 48" fill="none" xmlns="http://www.w3.org/2000/svg">
<g>
<path fill-rule="evenodd" clip-rule="evenodd" d="M21.0065 26.966L1.22458 7.184C-0.408195 5.55121 -0.408195 2.96661 1.22458 1.33383L1.33234 1.22458C2.96511 -0.408195 5.55122 -0.408195 7.1825 1.22458L26.966 21.0065C28.5987 22.6392 28.5987 25.2238 26.966 26.8566L26.8566 26.966C25.2238 28.5987 22.6392 28.5987 21.0065 26.966Z" fill="#0082FA"/>
<path fill-rule="evenodd" clip-rule="evenodd" d="M40.8161 46.7745L21.0341 26.9927C19.4014 25.3599 19.4014 22.7753 21.0341 21.1425L21.1435 21.0332C22.7762 19.4004 25.3609 19.4004 26.9936 21.0332L46.7755 40.8167C48.4082 42.4479 48.4082 45.0326 46.7755 46.6653L46.6663 46.7745C45.0335 48.4073 42.4489 48.4073 40.8161 46.7745Z" fill="#8250FA"/>
<path fill-rule="evenodd" clip-rule="evenodd" d="M21.1548 27.1168L8.38685 14.3489C6.75321 12.7152 6.75321 10.1293 8.38685 8.49566L8.49465 8.38636C10.1283 6.75272 12.7157 6.75272 14.3478 8.38636L27.1173 21.1543C28.751 22.788 28.751 25.374 27.1173 27.0076L27.0081 27.1168C25.3745 28.7505 22.7885 28.7505 21.1548 27.1168Z" fill="#0FD2FF"/>
<path fill-rule="evenodd" clip-rule="evenodd" d="M33.1119 39.0943L21.0414 27.0321C19.3989 25.3908 19.3989 22.7926 21.0414 21.1513L21.1512 21.0415C22.7937 19.4002 25.3935 19.4002 27.036 21.0415L38.9967 32.994C40.6392 34.6353 40.6392 37.2349 38.9967 38.8747L38.8869 38.9845C37.2731 40.6258 34.6445 40.6258 33.1119 39.0943Z" fill="#C382FA"/>
<path fill-rule="evenodd" clip-rule="evenodd" d="M40.8291 1.3793L1.37929 40.8024C-0.256639 42.4383 -0.256639 45.0279 1.37929 46.664L1.48875 46.7719C3.12468 48.4093 5.71428 48.4093 7.35021 46.7719L46.773 7.35027C48.4089 5.71432 48.4089 3.12471 46.773 1.48877L46.6635 1.3793C45.0546 -0.256643 42.465 -0.256643 40.8291 1.3793Z" fill="#BE0064"/>
<path fill-rule="evenodd" clip-rule="evenodd" d="M32.2723 9.83262L6.71221 35.4559C5.07705 37.0949 5.07705 39.6895 6.71221 41.3287L6.82012 41.4383C8.45529 43.0759 11.0437 43.0759 12.6788 41.4383L38.2404 15.8152C39.8755 14.176 39.8755 11.5814 38.2404 9.9423L38.131 9.83262C36.4959 8.30319 33.825 8.30319 32.2723 9.83262Z" fill="#FA0064"/>
<path fill-rule="evenodd" clip-rule="evenodd" d="M30.0652 24.0588L35.3437 29.3372C36.9803 30.9741 36.9803 33.5652 35.3437 35.2021L35.2342 35.3116C33.5975 36.9484 31.0067 36.9484 29.3701 35.3116L24.092 30.0329L16.496 37.6299C14.8594 39.2667 12.2686 39.2667 10.6319 37.6299L10.5224 37.5217C8.88576 35.8849 8.88576 33.2939 10.5224 31.6554L18.1187 24.0587L11.7777 17.7168C10.1411 16.0799 10.1411 13.4887 11.7777 11.8518L11.8873 11.7423C13.5224 10.1054 16.1147 10.1054 17.7499 11.7423L24.0919 18.0852L28.0337 14.1432C29.6704 12.5063 32.2612 12.5063 33.8978 14.1432L34.0073 14.2527C35.644 15.8897 35.644 18.4808 34.0073 20.1162L30.0652 24.0588Z" fill="#F5F5F5"/>
</g>
</svg>
